<svg xmlns="http://www.w3.org/2000/svg" viewBox="0 0 636 394"><path d="M519.53 158.6c-8.8-10-20.88-12.28-30.46-12.28-21.85 0-28.92 12.07-31.4 16.48v-50.74h-18v115.69l-.38 17.23h17.45l.37-14.55a30.388 30.388 0 0 0 9.36 9.73 37.888 37.888 0 0 0 21.47 6.16c13.21 0 26.07-5.55 33.71-16.47 4.8-6.34 9.17-16.49 9.17-35.08 0-21.05-6.5-30.63-11.29-36.17Zm-35.37 74.71c-26.85 0-26.85-30.08-26.85-36.42 0-6.12 0-38.29 27.58-38.29 25.09 0 27 27.76 27 37.34-.01 15.7-5.55 37.37-27.73 37.37ZM594.62 147.29c-7.85 0-23.74 2.29-32.76 17.42l-.37-15.9h-18.22c.38 9.17.58 11.48.58 15.7v117.43h17.84v-47.7c5.15 8.43 15.49 14.38 29.5 14.38 23 0 43.87-15.71 43.87-51.54 0-35.63-19.75-49.79-40.44-49.79Zm13.81 78.77c-6.13 8.45-15.72 9.39-20.32 9.39-25.3 0-27-24-27-35.63 0-8.63 0-39.06 28.74-39.06 21.27 0 26.44 18 26.44 35.23-.01 6.85-.98 20.64-7.86 30.07ZM307.98 115.06c-.06.16-.13.31-.2.47a145.836 145.836 0 0 1-1.95 4.64c-.16.37-.33.72-.49 1.08-.59 1.33-1.19 2.64-1.8 3.94l-.59 1.2c-.6 1.24-1.21 2.48-1.84 3.69-.2.4-.42.8-.62 1.19-.64 1.21-1.28 2.4-1.93 3.58-.22.38-.43.76-.65 1.13-.32.58-.64 1.18-1 1.75h3.95l3.17.09 2.12.1c1.07.05 2.14.12 3.22.2l2.14.16c1.087.093 2.177.193 3.27.3l2.16.22 3.31.42 2.18.28 3.25.5c3.94.627 7.923 1.383 11.95 2.27l.84.18a279.07 279.07 0 0 0 26.69-44.1 276.695 276.695 0 0 0-51.56 1 212.33 212.33 0 0 1-5.62 15.71ZM302.78 119.66c.44-1 .85-2 1.28-3 .28-.68.57-1.35.85-2 .4-1 .78-2 1.16-2.94.28-.73.57-1.45.84-2.18.38-1 .75-2 1.12-3.08l.75-2.12c.38-1.12.75-2.25 1.12-3.39l.36-1.12-2.1.23-2.25.33c-1.16.18-2.31.38-3.46.58l-2.1.36c-1.2.22-2.39.46-3.57.71-.62.12-1.25.24-1.87.38-1.3.27-2.57.57-3.85.87l-1.48.35c-1.58.39-3.14.8-4.68 1.22l-.52.14c-3.493.973-6.89 2.037-10.19 3.19l-.83.31c-1.17.42-2.34.85-3.49 1.29-.12.61-.26 1.2-.39 1.8-.2.9-.39 1.81-.6 2.69-.38 1.6-.79 3.18-1.22 4.75l-.27.94c-.37 1.28-.74 2.55-1.14 3.8-.13.42-.27.83-.4 1.24-.37 1.13-.75 2.26-1.15 3.37l-.51 1.39c-.38 1-.78 2.06-1.18 3.08-.2.5-.41 1-.61 1.49-.4.96-.81 1.91-1.23 2.85-.23.52-.46 1-.7 1.55-.42.91-.86 1.81-1.31 2.71-.25.5-.49 1-.75 1.51l-.2.42h.1l-.06.1.75-.22.6-.17c1.3-.39 2.62-.76 4-1.11l.88-.23c1.26-.32 2.53-.62 3.81-.9l.94-.21c1.3-.27 2.61-.53 3.93-.76l.84-.15c1.44-.25 2.9-.48 4.37-.68l.44-.06c4.846-.65 9.723-1.044 14.61-1.18l.43-.74a162.764 162.764 0 0 0 8.31-16.01l.62-1.4ZM265.81 68.45l-1.62.92c-1.06.6-2.1 1.2-3.13 1.81-.63.37-1.24.75-1.86 1.13-.94.57-1.88 1.14-2.81 1.72l-1.9 1.24c-.89.57-1.78 1.14-2.65 1.72l-1.68 1.15c-3.55 2.45-6.95 5-10.17 7.56l-.61.48c-.94.77-1.86 1.55-2.77 2.33l-1 .82c.473 3.207.833 6.393 1.08 9.56v.45c.11 1.47.2 2.92.27 4.37v1.5c0 1.1.07 2.2.07 3.29v1.79c0 .993-.02 1.993-.06 3 0 .62 0 1.25-.07 1.87 0 1-.1 1.91-.16 2.86-.05.62-.09 1.24-.14 1.85-.08 1-.18 1.93-.29 2.89-.06.57-.12 1.15-.19 1.73 0 .14 0 .29-.05.44l.07-.06v.13l.18-.14c.72-.55 1.47-1.09 2.21-1.62.49-.36 1-.72 1.48-1.07.75-.52 1.51-1 2.28-1.55.51-.34 1-.68 1.54-1 .78-.513 1.57-1.013 2.37-1.5l1.56-.94c.83-.49 1.65-1 2.49-1.45l1.53-.84c.88-.48 1.77-1 2.67-1.43.42-.22.86-.43 1.28-.64 3.4-1.713 6.91-3.307 10.53-4.78l.92-.38c.25-1.29.49-2.6.71-3.91 0-.2.08-.39.11-.59a173.01 173.01 0 0 0 2.12-21.73v-.8c.047-1.56.077-3.13.09-4.71V70.38l-.06-2c0-.73-.05-1.47-.08-2.21l-.73.39c-1.18.58-2.34 1.23-3.53 1.89ZM225.22 50.8c.23.59.44 1.17.66 1.76.9 2.373 1.743 4.74 2.53 7.1.16.48.34 1 .49 1.45.37 1.11.7 2.21 1 3.32.2.64.4 1.28.59 1.91.31 1.07.6 2.13.9 3.19l.55 2c.27 1 .52 2 .77 3.06.17.71.35 1.42.51 2.13.23 1 .43 1.94.64 2.9.16.77.32 1.53.47 2.29.15.76.34 1.79.5 2.68.07.4.16.8.23 1.2.46-.39 1-.77 1.42-1.16l1.19-1c1-.79 1.94-1.56 2.94-2.33l1.27-1c1-.76 2-1.51 3.07-2.27l1.29-.93c1.1-.78 2.22-1.55 3.35-2.31l1.15-.79c1.36-.9 2.73-1.79 4.13-2.67l.51-.33a216.773 216.773 0 0 1 14.56-8.31 277.949 277.949 0 0 0-8-50.9 275.595 275.595 0 0 0-38.78 33.96l.83 2.08c.44.99.85 1.98 1.23 2.97ZM388.5 162.56a276.936 276.936 0 0 0-48.76-16.71c-.28.36-.57.71-.85 1.08a214.695 214.695 0 0 1-9 10.87l-.57.66c-.75.83-1.51 1.64-2.26 2.45l-1.52 1.63c-.67.7-1.35 1.39-2 2.08-.65.69-1.2 1.23-1.81 1.83-.61.6-1.27 1.24-1.9 1.85-.63.61-1.33 1.28-2 1.9l-1.82 1.66c-.71.64-1.42 1.28-2.14 1.9l-1.77 1.52-1.08.93c.62.22 1.25.47 1.87.7l1.07.4c1.31.5 2.63 1 3.94 1.56l1 .42c1.37.57 2.74 1.17 4.12 1.79l.82.37c1.51.69 3 1.41 4.54 2.15l.41.2a203.88 203.88 0 0 1 19.6 11.09 281.021 281.021 0 0 0 40.11-32.33ZM316.16 211.99l1.29-.52c1.58-.667 3.16-1.353 4.74-2.06.84-.38 1.67-.79 2.51-1.18l2.31-1.09c.91-.45 1.82-.92 2.72-1.39.7-.35 1.4-.7 2.1-1.07l2.76-1.5c.7-.38 1.4-.76 2.09-1.15.9-.51 1.79-1 2.68-1.55.74-.43 1.48-.86 2.22-1.31.74-.45 1.66-1 2.49-1.53l1.45-.91-.93-.59c-1.1-.68-2.2-1.36-3.3-2l-1.45-.86c-1.14-.66-2.27-1.32-3.4-2l-1.29-.71c-1.19-.65-2.37-1.3-3.56-1.93l-.95-.48c-1.3-.68-2.59-1.34-3.89-2a160.547 160.547 0 0 0-18-7.53l-.56-.2c-.94.74-1.89 1.45-2.84 2.17l-.8.61a186.95 186.95 0 0 1-4 2.86l-1.26.83c-.93.63-1.87 1.26-2.81 1.86l-1.62 1c-.82.51-1.65 1-2.48 1.5-.58.35-1.17.68-1.76 1-.79.45-1.59.89-2.39 1.32-.6.33-1.21.64-1.81 1-.8.41-1.59.8-2.39 1.19l-1.82.88c-.82.38-1.65.75-2.48 1.11-.57.26-1.15.52-1.72.76l-.37.16h.07-.1l.4.17 1.8.79 2.4 1.08 1.91.92 2.29 1.15c.64.33 1.28.66 1.92 1l2.28 1.26c.62.35 1.24.7 1.85 1.06.8.47 1.59 1 2.38 1.44l1.71 1.06c.91.59 1.82 1.19 2.73 1.81l1.31.87c1.333.92 2.667 1.87 4 2.85l.74.57c.95.72 1.91 1.44 2.86 2.2l2.67-1c.59-.21 1.18-.41 1.77-.64 1.18-.32 2.37-.8 3.53-1.28ZM164.98 57.52c-.43 1.21-.83 2.42-1.23 3.62-.18.54-.37 1.09-.54 1.62-.45 1.39-.87 2.77-1.28 4.15-.1.35-.22.7-.32 1.06a165.95 165.95 0 0 0-3.77 15.7c-.05.23-.08.46-.12.69-.24 1.27-.45 2.53-.65 3.79.9.81 1.78 1.63 2.65 2.44l.71.65c1.2 1.14 2.373 2.297 3.52 3.47.33.33.65.68 1 1 .81.83 1.61 1.67 2.39 2.52.41.45.8.9 1.2 1.35.68.76 1.34 1.51 2 2.27.42.49.82 1 1.23 1.47.61.75 1.21 1.49 1.8 2.24.4.5.79 1 1.17 1.52.58.75 1.14 1.51 1.69 2.27.37.5.74 1 1.09 1.52.56.79 1.1 1.59 1.64 2.4.31.47.64 1 1 1.43.08.13.17.25.25.37v-.1l.06.1c0-.15.08-.29.11-.44.14-.6.29-1.21.44-1.81.21-.89.43-1.78.67-2.67.18-.66.37-1.32.56-2 .24-.83.49-1.65.74-2.48.25-.83.44-1.39.67-2.09.23-.7.54-1.58.81-2.36.27-.78.51-1.44.78-2.16.27-.72.59-1.53.89-2.3.3-.77.57-1.45.87-2.18.3-.73.68-1.57 1-2.36.32-.79.6-1.38.92-2.08.667-1.42 1.333-2.837 2-4.25.25-.49.52-1 .77-1.48.45-.87.89-1.74 1.36-2.61-.61-1.1-1.23-2.19-1.88-3.29-.13-.22-.25-.45-.39-.67a159.6 159.6 0 0 0-8.93-13.48l-.51-.68c-.92-1.24-1.86-2.48-2.82-3.72l-.76-.95c-.9-1.15-1.81-2.29-2.76-3.42-.29-.36-.6-.72-.9-1.08-.92-1.09-1.85-2.19-2.8-3.27l-1-1.14c-.57-.64-1.16-1.28-1.74-1.92l-.84 2.06c-.25.65-.51 1.29-.75 1.93-.45 1.15-.87 2.29-1.29 3.44-.26.66-.53 1.29-.71 1.91ZM179.87 56.9l.56.69c.7.9 1.38 1.8 2.06 2.7.43.57.87 1.14 1.29 1.71.61.82 1.19 1.64 1.78 2.47l1.4 2 1.61 2.38c.46.69.92 1.38 1.37 2.07.45.69 1 1.57 1.49 2.36.49.79.87 1.4 1.3 2.1.43.7.95 1.59 1.41 2.38.19.34.4.67.59 1 .18-.32.38-.64.56-.95.48-.83 1-1.65 1.46-2.47l1.19-1.94c.52-.83 1.05-1.66 1.59-2.5.4-.62.82-1.24 1.24-1.87.57-.85 1.14-1.71 1.73-2.56l1.24-1.75c.63-.89 1.26-1.78 1.92-2.66.37-.5.76-1 1.14-1.5.72-1 1.45-1.94 2.21-2.9.11-.15.23-.29.35-.44 2.92-3.7 6.037-7.367 9.35-11 .32-.35.62-.7.94-1A283.237 283.237 0 0 0 194.72.08a280.119 280.119 0 0 0-24.94 45.13l1 1.07c3.2 3.48 6.23 7.02 9.09 10.62ZM299.72 252.7c3.52-.04 7.09-.203 10.71-.49h.06c1.75-.14 3.51-.31 5.28-.5l1.37-.16c1.34-.16 2.68-.32 4-.51l1.92-.28 3.54-.55 2.19-.39 3.35-.62 2.28-.47 2-.44-.8-1c-.73-.93-1.45-1.85-2.19-2.75-.43-.54-.88-1.07-1.32-1.6-.75-.9-1.49-1.8-2.25-2.68l-1.35-1.55c-.76-.86-1.51-1.72-2.27-2.55-.48-.53-1-1-1.45-1.56-.74-.8-1.48-1.6-2.23-2.38-.55-.57-1.11-1.12-1.66-1.68-.55-.56-1.38-1.41-2.08-2.09-1.19-1.17-2.39-2.3-3.6-3.42-.42-.39-.86-.77-1.29-1.16-.92-.83-1.83-1.65-2.76-2.45-.48-.42-1-.81-1.45-1.22-.72-.61-1.45-1.21-2.18-1.8-1.19.39-2.37.75-3.56 1.11l-.75.24c-1.593.467-3.183.907-4.77 1.32l-1.27.31c-1.15.29-2.31.57-3.46.83l-1.74.36-3 .59-1.88.32c-.95.16-1.89.31-2.84.45l-1.91.26c-.94.12-1.87.23-2.8.32-.63.07-1.26.14-1.89.19-1 .09-1.91.15-2.86.22l-1.65.14h-.46l.07.06h-.11l.39.37 1.11 1c.76.73 1.52 1.46 2.26 2.22l1.14 1.16a116.469 116.469 0 0 1 3.26 3.51c.7.78 1.39 1.57 2.08 2.38l1.07 1.26c.7.85 1.38 1.71 2.07 2.58l1 1.22c.76 1 1.5 2 2.24 3 .22.31.45.6.67.91.95 1.34 1.89 2.7 2.8 4.09.17.25.33.52.49.77.65 1 1.31 2 1.94 3h3.35l1.19.11ZM218.16 51.29c-1 1.12-1.93 2.23-2.86 3.35l-.85 1c-1 1.19-1.93 2.38-2.87 3.57l-.65.81a157.833 157.833 0 0 0-3 4l-.29.39a172.487 172.487 0 0 0-9 13.52l-.22.38c-.69 1.17-1.35 2.35-2 3.52.55 1 1.08 2.07 1.61 3.1.15.3.32.6.47.9.73 1.47 1.44 2.94 2.11 4.42.2.42.37.84.56 1.26.47 1.06.94 2.13 1.38 3.19.23.56.45 1.12.67 1.68.37.93.74 1.87 1.09 2.81.22.6.44 1.2.65 1.8.32.91.63 1.81.93 2.71.2.62.4 1.23.59 1.85.28.9.55 1.8.81 2.71.18.61.35 1.22.52 1.83.25.93.48 1.86.71 2.8.14.57.29 1.15.42 1.72 0 .16.08.32.11.48l.06-.1v.09c.1-.15.21-.3.3-.46l.76-1.13c.593-.9 1.203-1.8 1.83-2.7.31-.45.64-.89 1-1.34.6-.82 1.2-1.64 1.82-2.45.35-.46.71-.93 1.08-1.39.62-.8 1.26-1.58 1.91-2.37l1.12-1.35c.7-.82 1.42-1.64 2.15-2.45.34-.39.68-.78 1-1.16.91-1 1.85-2 2.8-3l.53-.56c2.22-2.247 4.537-4.45 6.95-6.61-.2-1.24-.41-2.48-.64-3.73 0-.25-.08-.5-.13-.75a168.397 168.397 0 0 0-3.79-15.73c-.06-.24-.14-.47-.21-.7-.44-1.51-.9-3-1.39-4.53-.14-.43-.29-.86-.44-1.3-.43-1.31-.87-2.63-1.34-3.95l-.6-1.63a207.1 207.1 0 0 0-1.36-3.67l-.72-1.8c-.28-.71-.57-1.43-.86-2.14l-1.77 2-.95 1.11ZM148.77 168.12c-.32-.34-.65-.67-1-1-.48-.52-.93-1.05-1.4-1.58-.47-.53-.91-1-1.35-1.53-.44-.53-.73-.9-1.1-1.35-.51-.62-1-1.23-1.52-1.86-.31-.4-.61-.81-.91-1.21-.53-.69-1.07-1.39-1.58-2.1-.28-.38-.55-.78-.82-1.16-.52-.74-1-1.48-1.54-2.23-.28-.41-.54-.83-.81-1.24-.48-.74-1-1.47-1.42-2.22-.29-.48-.57-1-.86-1.46-.29-.46-.73-1.19-1.07-1.81l-3.06-1-1-.32c-1.46-.45-2.94-.86-4.44-1.25-.37-.1-.76-.18-1.13-.27-1.13-.28-2.26-.56-3.4-.81l-1.67-.34c-1-.2-2-.39-2.95-.57l-1.88-.31-2.84-.44-2-.25c-.93-.12-1.86-.23-2.8-.32l-2.07-.2c-.93-.08-1.86-.15-2.8-.21l-2.13-.13h-1.24l.71 1.12c.35.55.71 1.09 1.07 1.63.57.85 1.14 1.68 1.72 2.51l1.06 1.5c.61.84 1.23 1.67 1.85 2.49l1 1.38c.65.83 1.32 1.65 2 2.46.35.42.69.85 1 1.26.71.85 1.43 1.67 2.16 2.49.32.35.63.72.95 1.07.85.94 1.72 1.85 2.59 2.74l.63.66c1.09 1.11 2.2 2.18 3.32 3.23.25.24.52.46.78.7.79.73 1.59 1.45 2.41 2.16H125.16c1 0 2 .08 3.05.14l1.13.06c.95.07 1.89.15 2.84.24l1.29.12c.9.1 1.79.21 2.68.33l1.41.18c.86.13 1.72.27 2.57.42l1.49.25c.85.15 1.69.33 2.53.51.5.1 1 .19 1.49.3.89.2 1.76.42 2.64.64l1.35.33c1.18.307 2.35.64 3.51 1l.44.12c-1.64-1.58-3.25-3.21-4.81-4.87ZM183.32 277.65c.08.35.14.7.23 1.05.34 1.48.71 2.95 1.12 4.43.15.55.33 1.11.49 1.67.27.91.53 1.83.82 2.75.23.72.48 1.43.73 2.15s.5 1.51.77 2.26c.27.75.58 1.54.87 2.31.29.77.54 1.4.82 2.1.28.7.65 1.57 1 2.36.35.79.59 1.37.9 2.05.31.68.7 1.55 1.07 2.33.37.78.66 1.41 1 2.12.34.71.73 1.46 1.11 2.2.16.32.34.65.51 1l.57-1.09c.327-.667.66-1.307 1-1.92.41-.83.81-1.66 1.19-2.49.3-.64.6-1.28.89-1.92.38-.84.74-1.69 1.1-2.53.26-.64.53-1.27.79-1.9.35-.87.68-1.74 1-2.61.23-.61.47-1.22.69-1.84.34-.92.65-1.85 1-2.78.19-.55.38-1.11.56-1.67.35-1.09.67-2.18 1-3.27.11-.4.24-.8.35-1.2a113.56 113.56 0 0 0 1.14-4.47c.09-.37.16-.74.24-1.1.23-1 .45-2.07.65-3.11-.58-1-1.13-2-1.68-3l-.09-.16a109.293 109.293 0 0 1-10.31-27.16 110.853 110.853 0 0 1-5 15.87l-.1.22c-.48 1.2-1 2.4-1.52 3.58-.06.14-.13.28-.19.41-.5 1.12-1 2.24-1.56 3.34-.09.18-.19.35-.27.53-.53 1.06-1.07 2.11-1.63 3.15l-.34.6c-.48.88-1 1.76-1.46 2.62.09 1.03.31 2.07.54 3.12ZM162.41 156.59c-.07-.13-.12-.27-.18-.4-.51-1.12-1-2.24-1.47-3.37-.2-.48-.38-1-.57-1.45-.31-.79-.63-1.58-.93-2.38-.22-.6-.42-1.2-.63-1.79-.21-.59-.5-1.39-.73-2.1-.23-.71-.4-1.29-.6-1.94-.2-.65-.42-1.32-.61-2-.19-.68-.36-1.33-.53-2-.17-.67-.37-1.33-.53-2-.16-.67-.31-1.33-.46-2-.15-.67-.31-1.36-.46-2-.15-.64-.24-1.31-.37-2s-.24-1.22-.35-1.84c-.29-.24-.6-.47-.9-.71-2.667-2.1-5.433-4.1-8.3-6-.54-.36-1.08-.73-1.64-1.08-.72-.46-1.47-.9-2.2-1.35-.73-.45-1.19-.72-1.8-1.07-.61-.35-1.52-.87-2.29-1.29-.61-.34-1.21-.68-1.83-1l-2.42-1.25-1.82-.91c-.85-.41-1.71-.82-2.58-1.22l-1.75-.79-2.78-1.21-.72-.29c.1.44.19.89.29 1.34l.45 1.88c.25 1 .51 2 .77 3 .16.6.32 1.2.49 1.79.293 1.013.593 2.013.9 3 .17.54.33 1.09.51 1.63.33 1.05.69 2.08 1 3.1.17.47.33.95.5 1.42.41 1.13.85 2.25 1.3 3.36.13.34.26.69.4 1a111.984 111.984 0 0 0 5.88 12.22h.11c1.23.44 2.45.9 3.65 1.38l.52.22c1.09.44 2.17.89 3.24 1.37l.66.3c1 .47 2 .94 3.06 1.43l.55.29c1.05.51 2.09 1 3.11 1.59l.2.12a109.283 109.283 0 0 1 13.61 8.69c-.57-1.22-1.18-2.43-1.75-3.69ZM185.05 123.26c.49.93 1 1.86 1.44 2.8l.36.78c.47 1 .93 2 1.38 2.95l.27.64c.45 1 .9 2.09 1.32 3.15.06.15.11.3.17.46.45 1.12.88 2.25 1.28 3.39.004.04.004.08 0 .12a107.52 107.52 0 0 1 3.44 11.69 108.538 108.538 0 0 1 10-26.47c0-.1.1-.21.16-.31.52-1 1.07-1.94 1.63-2.9.11-.21.22-.42.34-.62-.2-1-.43-2.11-.66-3.16-.08-.35-.15-.7-.23-1a108.416 108.416 0 0 0-1.14-4.47c-.1-.4-.23-.79-.34-1.18-.32-1.1-.64-2.19-1-3.29-.18-.56-.37-1.11-.56-1.67-.31-.93-.62-1.86-1-2.79-.22-.61-.45-1.21-.68-1.82-.34-.88-.67-1.75-1-2.63-.26-.62-.52-1.25-.79-1.88-.36-.85-.72-1.7-1.1-2.55-.29-.64-.58-1.27-.88-1.9-.387-.84-.787-1.68-1.2-2.52-.32-.63-.63-1.27-1-1.9-.18-.36-.38-.73-.57-1.09-.21.4-.43.8-.63 1.2-.287.56-.567 1.12-.84 1.68-.47.95-.93 1.91-1.38 2.87-.23.51-.47 1-.7 1.54-.46 1-.89 2-1.31 3-.2.48-.41 1-.6 1.44-.43 1.05-.83 2.1-1.22 3.15-.17.44-.35.89-.51 1.33-.4 1.11-.77 2.23-1.14 3.34-.13.38-.27.77-.39 1.16-.41 1.29-.8 2.58-1.16 3.87l-.18.62c-.42 1.5-.8 3-1.15 4.51-.07.32-.13.63-.2.94-.24 1.08-.47 2.15-.67 3.23l.44.79c.51.89 1 1.77 1.5 2.67.21.25.35.54.5.83ZM282.32 191.29c1.14-.55 2.29-1.12 3.43-1.72l1.34-.73c.92-.5 1.85-1 2.77-1.53l1.56-.93c.84-.5 1.69-1 2.52-1.53.56-.34 1.11-.71 1.67-1.06l2.38-1.57 1.72-1.19c.76-.54 1.53-1.08 2.29-1.64.58-.42 1.16-.85 1.73-1.29.34-.25.67-.51 1-.77l-.68-.22c-1-.32-2.06-.62-3.09-.92l-1.51-.42c-1.06-.29-2.12-.57-3.18-.83l-1.33-.32c-1.12-.27-2.24-.52-3.35-.76l-1-.2c-1.21-.24-2.42-.48-3.62-.68l-.49-.08a115.593 115.593 0 0 0-17.12-1.59h-.07l-1.64 1.34-1.3 1.06c-.73.58-1.48 1.14-2.22 1.7-.35.26-.69.53-1 .78-.83.61-1.68 1.2-2.54 1.79l-.82.58c-.93.62-1.87 1.23-2.82 1.82l-.64.42c-1 .62-2 1.23-3.06 1.82l-.5.3c-1.08.61-2.18 1.21-3.29 1.8l-.35.18c-2.46 1.28-5 2.48-7.54 3.58 2.64.14 5.26.39 7.87.72h.29c1.2.15 2.4.34 3.6.54l.45.07c1.19.2 2.38.43 3.57.67l.46.08c1.17.25 2.35.52 3.52.81l.47.1c1.16.29 2.31.61 3.46.93l.51.14c1.11.32 2.23.67 3.33 1l.61.19c1.06.35 2.12.73 3.17 1.11l.64.22c1-.4 2.11-.82 3.16-1.26l.76-.31c1.413-.6 2.82-1.233 4.22-1.9.18-.05.42-.18.66-.3ZM278.09 221.65c.43 0 .86-.1 1.29-.15 1.11-.11 2.22-.24 3.33-.38l1.78-.27 2.87-.45 1.95-.37 2.73-.54c.68-.14 1.35-.3 2-.46l2.67-.63 2.07-.54c.89-.24 1.77-.48 2.66-.74l2.09-.62 1.17-.37-1-.75-1.75-1.3c-.75-.56-1.51-1.1-2.28-1.63-.56-.4-1.13-.79-1.7-1.18l-2.4-1.59-1.62-1c-.86-.54-1.73-1.06-2.59-1.57l-1.49-.88c-1-.55-1.92-1.08-2.89-1.6l-1.23-.67c-1.19-.63-2.4-1.23-3.6-1.81l-.56-.28a140.191 140.191 0 0 0-4.27-1.92l-.69-.28a94.863 94.863 0 0 0-3.24-1.29 109.003 109.003 0 0 1-31.92 6.62 110.027 110.027 0 0 1 27.55 17l.17.14c1 0 2.08-.05 3.12-.1h1.15c1.58-.13 3.1-.25 4.63-.39ZM309.8 173.25l1.36-1.19a136.62 136.62 0 0 0 3.64-3.24l.22-.19c1.333-1.22 2.64-2.463 3.92-3.73l.26-.26c1.193-1.18 2.38-2.383 3.56-3.61l.67-.72c1-1.1 2.08-2.2 3.1-3.34.28-.3.54-.61.81-.91.98-1.087 1.95-2.197 2.91-3.33l.87-1c.927-1.1 1.853-2.217 2.78-3.35l.93-1.18c.53-.67 1.06-1.36 1.59-2l-2.48-.53-1.54-.32-3.92-.72-1.75-.31c-1.25-.21-2.5-.4-3.74-.58l-1.81-.27c-1.26-.18-2.51-.33-3.76-.47l-1.7-.21c-1.41-.15-2.8-.27-4.19-.39l-1.19-.11c-1.79-.14-3.58-.25-5.35-.33h-.28c-1.66-.07-3.3-.12-4.93-.14h-4.73c-.42.68-.85 1.34-1.28 2-.43.66-1 1.52-1.46 2.27-.79 1.19-1.59 2.36-2.4 3.5-.42.59-.85 1.16-1.28 1.74-.43.58-1.06 1.45-1.6 2.16-.54.71-1 1.22-1.44 1.82-.44.6-1 1.28-1.53 1.91-.53.63-1 1.23-1.55 1.84-.55.61-1 1.16-1.51 1.73l-1.66 1.83c-.49.53-1 1-1.48 1.56s-1.18 1.22-1.78 1.82l-1.43 1.4c-.63.61-1.26 1.22-1.91 1.81l-.17.16h.11l-.06.06c.29 0 .58 0 .86.06h.25c1.5.08 3 .2 4.52.34l.5.05c1.44.14 2.89.31 4.33.5l.58.08c1.45.21 2.9.43 4.36.69l.5.09c1.56.28 3.11.58 4.67.92h.16a138.938 138.938 0 0 1 14.2 3.9c.78-.58 1.52-1.19 2.25-1.81ZM270.6 106.33l1.16-.41 2.5-.88 2.46-.82c.84-.27 1.68-.54 2.54-.8l2.57-.76c.85-.25 1.69-.5 2.55-.73.86-.23 1.81-.48 2.72-.71.91-.23 1.68-.44 2.53-.64.85-.2 2-.46 2.95-.68.81-.18 1.61-.37 2.42-.54 1.24-.26 2.5-.5 3.76-.74l2.81-.52c1.47-.25 2.93-.5 4.42-.73.76-.12 1.55-.22 2.32-.33 1-.14 2-.29 3-.42a277.213 277.213 0 0 0 9.9-50.56 279.356 279.356 0 0 0-48.11 18.56c.05.89.06 1.78.09 2.67.03.89.08 1.83.1 2.74v1.47a188.41 188.41 0 0 1-.27 13.64c0 .39 0 .79-.06 1.19-.07 1.26-.18 2.5-.28 3.75 0 .55-.08 1.11-.13 1.66-.11 1.14-.23 2.27-.36 3.41-.07.65-.14 1.3-.22 1.94-.13 1-.27 2.08-.42 3.11a115.793 115.793 0 0 1-.79 4.99c-.06.39-.12.79-.19 1.17l.03-.03ZM311.26 296.86c-1.26-.17-2.5-.35-3.75-.54l-1.36-.19a189.908 189.908 0 0 1-11.23-2.05l-1.13-.25c-1.44-.31-2.86-.64-4.27-1l-1.6-.41c-1.24-.31-2.47-.62-3.69-1l-1.75-.5c-1.15-.33-2.31-.67-3.44-1l-1.77-.56c-1.12-.36-2.22-.72-3.32-1.1l-1.73-.61-1.61-.56c.06.34.11.7.17 1 .18 1 .34 1.95.49 2.94.12.78.24 1.56.35 2.34.13.93.26 1.86.37 2.8.11.94.21 1.74.3 2.61.09.87.19 1.76.28 2.65.09.89.16 1.95.23 2.92.07.82.14 1.64.19 2.47.07 1.12.12 2.26.17 3.4 0 .7.07 1.39.1 2.09.05 1.73.09 3.48.1 5.25v.33c0 1.88 0 3.77-.06 5.68 0 .64 0 1.28-.06 1.93 0 1.1-.06 2.2-.12 3.31a279.303 279.303 0 0 0 48.04 18.62 277.09 277.09 0 0 0-9.94-50.57h.04ZM81.98 97.15l1.39.2c3.83.58 7.58 1.27 11.25 2l1.19.27c1.42.31 2.83.62 4.22 1 .55.13 1.09.28 1.63.42 1.23.3 2.45.62 3.66 1l1.77.51c1.14.32 2.28.65 3.4 1l1.81.58c1.09.35 2.17.7 3.24 1.07l3.33 1.18c-.06-.32-.11-.64-.16-1-.18-1-.35-2-.51-3.08-.12-.73-.22-1.47-.33-2.2-.13-1-.27-1.93-.39-2.9s-.19-1.68-.28-2.52c-.09-.84-.2-1.81-.29-2.72-.09-.91-.16-1.91-.23-2.87-.07-.96-.13-1.66-.19-2.5-.07-1.12-.11-2.25-.17-3.37 0-.71-.07-1.4-.09-2.11-.06-1.73-.09-3.47-.11-5.22v-.37c0-1.88 0-3.77.05-5.68 0-.64 0-1.29.07-1.94 0-1.1.06-2.2.11-3.31A277.789 277.789 0 0 0 68.3 46.06a276.26 276.26 0 0 0 9.92 50.6c1.26.12 2.51.31 3.76.49ZM234.86 260.64c.23 1.15.46 2.3.65 3.46.24.2.49.38.73.57 2.76 2.207 5.65 4.3 8.67 6.28.48.31 1 .63 1.43.93.79.5 1.6 1 2.4 1.47l1.58.95c.82.48 1.65.94 2.49 1.4l1.61.89c.86.46 1.73.9 2.61 1.35.53.27 1.06.54 1.61.8.9.44 1.81.87 2.73 1.29l1.6.73c.94.42 1.89.83 2.85 1.23l.69.29-.3-1.35c-.14-.6-.28-1.2-.43-1.8-.25-1.05-.52-2.09-.8-3.13-.14-.52-.28-1.05-.43-1.57-.31-1.09-.63-2.16-1-3.23-.15-.47-.29-.94-.44-1.41-.36-1.11-.73-2.2-1.12-3.29-.14-.42-.29-.84-.44-1.26-.41-1.14-.85-2.26-1.29-3.37-.15-.36-.28-.72-.42-1.07-.52-1.27-1.07-2.51-1.62-3.75-.09-.19-.16-.38-.25-.56-.64-1.42-1.32-2.81-2-4.19-.16-.31-.33-.61-.49-.93-.5-.95-1-1.9-1.52-2.83a109.278 109.278 0 0 1-28.7-15.48l.15.31a108.92 108.92 0 0 1 9.43 27.13.35.35 0 0 0 .02.14ZM268.16 225.15a109.764 109.764 0 0 1-32.25-4.65 109.242 109.242 0 0 1 20.16 25.56 112.376 112.376 0 0 0 13.22 3.71l.52.11c1.35.28 2.71.55 4.08.79l1.16.19c1.17.2 2.36.39 3.55.55.47.07.95.12 1.43.18 1.13.15 2.26.28 3.4.4l1.5.13c1.16.113 2.33.203 3.51.27l1.38.08 1.63.07-.66-1c-.387-.62-.787-1.23-1.2-1.83-.5-.75-1-1.49-1.52-2.23l-1.29-1.82c-.51-.7-1-1.39-1.54-2.07-.54-.68-.91-1.21-1.38-1.81-.47-.6-1-1.29-1.55-1.93-.55-.64-1-1.19-1.45-1.78l-1.59-1.82c-.51-.57-1-1.15-1.51-1.71s-1.14-1.21-1.71-1.81c-.57-.6-1-1.05-1.48-1.56a117.72 117.72 0 0 0-3.2-3.12l-1.21-1.08c-.65-.61-1.32-1.22-2-1.82ZM217.25 284.64l.15.2c.71.93 1.44 1.84 2.19 2.75l.73.9c.68.83 1.39 1.64 2.1 2.45.33.38.66.77 1 1.14.68.77 1.38 1.52 2.09 2.27l1.19 1.26c.69.72 1.4 1.43 2.11 2.14l1.35 1.31c.7.68 1.42 1.36 2.15 2l.63.58c.08-.57.17-1.15.23-1.72.05-.39.1-.78.14-1.17.14-1.29.27-2.57.38-3.85l.09-1.1c.09-1.32.17-2.63.23-3.94v-.94c.05-1.4.08-2.8.09-4.19v-.61a114.929 114.929 0 0 0-1.43-18.47c-.2-.17-.39-.35-.59-.51-.81-.69-1.62-1.37-2.41-2.08l-.87-.79c-.72-.66-1.43-1.31-2.14-2l-1.08-1.07c-.61-.6-1.22-1.2-1.81-1.81-.59-.61-.91-1-1.37-1.47-.46-.47-1-1-1.41-1.52-.41-.52-1.15-1.33-1.72-2l-1-1.11c-.72-.88-1.43-1.77-2.12-2.67-.15-.18-.3-.36-.44-.55a107.17 107.17 0 0 1-4.8-6.76 109.793 109.793 0 0 1 .12 24.91c-.28 2.573-.65 5.137-1.11 7.69l.31.5a112.065 112.065 0 0 0 7.02 10.23ZM234.07 104.94c0-.77-.07-1.55-.11-2.33-.04-.78-.09-1.6-.15-2.41s-.13-1.72-.21-2.59c-.06-.71-.13-1.42-.2-2.14-.11-1-.22-1.93-.34-2.9 0-.27-.07-.54-.11-.82l-.72.66-1.94 1.83-1.69 1.66c-.58.58-1.15 1.15-1.71 1.73-.56.58-1.16 1.22-1.73 1.83-.57.61-1 1.12-1.54 1.68-.54.56-1.15 1.3-1.72 1.95-.57.65-.94 1.09-1.4 1.64-.46.55-1.12 1.38-1.67 2.07-.43.53-.86 1.06-1.28 1.6-.56.73-1.1 1.47-1.64 2.21-.38.51-.77 1-1.13 1.53-.853 1.2-1.677 2.41-2.47 3.63-.45.69-.86 1.39-1.29 2.08-.43.69-.69 1.1-1 1.65.09.48.15 1 .24 1.46.13.77.26 1.54.37 2.32.11.78.23 1.73.34 2.59l.18 1.43c.12 1.14.22 2.27.3 3.41l.06.65c.488 6.91.32 13.851-.5 20.73a109.325 109.325 0 0 1 21.74-24.34c.16-1 .31-2.08.44-3.13.05-.36.11-.72.15-1.08.19-1.51.34-3 .46-4.56 0-.4.05-.79.07-1.19.08-1.14.16-2.29.2-3.44 0-.6 0-1.21.05-1.81 0-1 .05-1.91.05-2.88v-2.09c-.01-.88-.07-1.75-.1-2.63ZM263.84 112.31c-1.18.52-2.34 1.05-3.48 1.59l-1.05.49c-1.16.56-2.31 1.14-3.44 1.73l-.92.47c-1.19.63-2.37 1.28-3.53 1.94l-.68.38a90.114 90.114 0 0 0-3.85 2.32l-.21.13a114.733 114.733 0 0 0-11.17 8 109.228 109.228 0 0 1-10.24 31c1.84-1.39 3.74-2.69 5.67-4l1.09-.73c.6-.38 1.21-.74 1.82-1.11.61-.37 1.14-.7 1.72-1 .58-.3 1.09-.62 1.64-.93.55-.31 1.3-.74 2-1.09.7-.35 1.07-.55 1.61-.83.54-.28 1.37-.71 2.07-1.05.54-.27 1.09-.51 1.64-.77l2.11-1c.56-.25 1.13-.48 1.7-.72.57-.24 1.4-.6 2.11-.88l1.77-.67c.61-.23 1.21-.48 1.83-.7.52-.93 1-1.87 1.51-2.82l.51-1c.68-1.34 1.33-2.7 2-4.08.27-.61.53-1.23.8-1.84.34-.79.69-1.58 1-2.38.31-.8.6-1.51.89-2.27.29-.76.54-1.37.8-2.07.26-.7.57-1.6.84-2.41s.48-1.38.71-2.08c.23-.7.5-1.59.74-2.39s.46-1.51.68-2.28c.22-.77.41-1.47.61-2.21.23-.9.47-1.8.69-2.71.15-.6.29-1.21.43-1.83.11-.45.2-.92.3-1.38l-1.59.66-1.13.52ZM264.99 168.33h3.15a114.665 114.665 0 0 0 9.8-9.57l.58-.65c.84-.94 1.68-1.9 2.51-2.88l.89-1.09c.7-.86 1.4-1.72 2.09-2.61.34-.43.67-.88 1-1.32.64-.84 1.27-1.68 1.89-2.54l1-1.45c.6-.86 1.2-1.72 1.79-2.6l1-1.48c.26-.4.51-.81.77-1.22h-.69c-1.08 0-2.16.12-3.23.19l-1.59.12c-1.07.09-2.14.19-3.2.3-.51.05-1 .12-1.52.18-1.07.12-2.14.25-3.2.4l-1.4.22c-1.08.17-2.17.34-3.24.53l-1.15.23c-1.15.22-2.29.44-3.42.69l-.41.1a113.656 113.656 0 0 0-12 3.38l-.32.1c-.45.79-.92 1.56-1.39 2.34-.17.29-.34.59-.52.88-.54.86-1.09 1.71-1.64 2.55-.21.32-.41.64-.62 1-.54.81-1.11 1.61-1.67 2.4-.24.34-.46.68-.71 1-.55.77-1.13 1.52-1.71 2.27l-.78 1c-.58.74-1.19 1.46-1.79 2.19-.28.33-.55.68-.83 1-.62.73-1.26 1.44-1.9 2.15-.28.32-.55.64-.83.95-.71.77-1.44 1.53-2.17 2.28-.23.24-.45.48-.69.71-1 1-1.95 2-3 2.9a108.38 108.38 0 0 1 28.65-4.64l.5-.01ZM118.87 287.13l-3.21 1.12c-1.18.41-2.38.81-3.59 1.2l-1.45.46c-1.29.4-2.59.78-3.91 1.15l-1.24.36c-1.48.4-3 .79-4.47 1.16l-.8.21a200.468 200.468 0 0 1-22 4.06 276.286 276.286 0 0 0-9.92 50.58 278.979 278.979 0 0 0 48.09-18.54 206.485 206.485 0 0 1-.11-16.61c0-.53 0-1.06.07-1.59.06-1.3.12-2.59.2-3.88 0-.74.11-1.48.16-2.22.08-1.06.16-2.12.26-3.17.07-.81.16-1.6.25-2.41.1-1 .21-1.94.33-2.9.12-.96.21-1.63.33-2.45.12-.82.26-1.85.4-2.77.14-.92.27-1.63.41-2.43.07-.45.14-.9.22-1.34l-.02.01ZM164.38 342.95a197.597 197.597 0 0 1-5.57-16.37c-.07-.24-.13-.48-.2-.72-.44-1.51-.85-3-1.24-4.53-.11-.4-.21-.81-.31-1.22-.33-1.32-.65-2.63-.95-3.94-.12-.53-.23-1.06-.35-1.6-.25-1.16-.49-2.32-.71-3.47-.13-.64-.24-1.28-.36-1.91-.12-.63-.2-1-.29-1.55l-1.13.92-1.74 1.43-2.43 1.92-1.7 1.31c-.9.68-1.81 1.35-2.73 2l-1.56 1.12c-1.05.75-2.13 1.49-3.21 2.22l-1.24.85a191.583 191.583 0 0 1-4.08 2.64c-.19.11-.37.23-.55.35-3.22 2-6.553 3.947-10 5.84l-.94.51c-1.19.64-2.39 1.29-3.6 1.92a278.23 278.23 0 0 0 8 50.91 276.788 276.788 0 0 0 38.83-33.87c-.57-1.38-1.11-2.75-1.65-4.11-.11-.21-.21-.43-.29-.65ZM123.41 325.16c.75-.42 1.5-.84 2.24-1.27.9-.51 1.8-1 2.68-1.54l2-1.23c.9-.55 1.81-1.09 2.7-1.65.65-.41 1.28-.83 1.93-1.25l2.61-1.7c.68-.46 1.34-.93 2-1.4.66-.47 1.59-1.08 2.36-1.64a197.58 197.58 0 0 0 4.08-3c.4-.3.78-.61 1.17-.92 1-.79 2-1.58 3-2.39.47-.38.93-.78 1.39-1.16.75-.63 1.49-1.25 2.22-1.88-.17-1.19-.32-2.38-.46-3.56 0-.31-.09-.63-.13-.95-.19-1.64-.35-3.27-.48-4.9 0-.47-.06-.93-.09-1.4-.08-1.16-.15-2.31-.21-3.46 0-.61 0-1.21-.05-1.82 0-1-.06-2-.07-3v-1.93c0-1 0-1.9.05-2.85 0-.65.05-1.3.08-1.95 0-.93.1-1.87.16-2.79 0-.64.09-1.27.14-1.91.09-1 .18-1.89.29-2.84.06-.59.12-1.19.2-1.77v-.46l-.08.06v-.09l-.5.36-.95.71c-1 .7-1.92 1.4-2.91 2.09l-1 .68a300.46 300.46 0 0 1-3 2l-1 .66c-1 .64-2.08 1.27-3.14 1.89l-1 .6c-1.11.63-2.23 1.25-3.37 1.85l-.93.5c-1.29.67-2.6 1.33-3.93 2l-.49.24a139.61 139.61 0 0 1-4.61 2.1l-.53.22c-1.19.5-2.39 1-3.6 1.49-.21 1.07-.41 2.16-.6 3.25-.07.45-.16.89-.23 1.34-.28 1.67-.52 3.35-.75 5.05v.12c-.23 1.76-.43 3.53-.61 5.33 0 .42-.07.86-.1 1.29-.13 1.34-.24 2.68-.33 4 0 .72-.08 1.46-.12 2.18-.06 1.07-.12 2.14-.16 3.22 0 .89 0 1.8-.07 2.69-.07.89 0 1.84-.06 2.76-.06.92 0 2.1 0 3.16v2.3c0 1.22.05 2.45.1 3.68v1.1l1.54-.82c.94-.49 1.78-.92 2.62-1.39ZM171.51 341.93c.7-.81 1.39-1.62 2.08-2.44.53-.62 1.06-1.25 1.58-1.88.67-.81 1.32-1.63 2-2.45.5-.63 1-1.26 1.51-1.9.64-.82 1.25-1.65 1.87-2.48.48-.63 1-1.26 1.43-1.9.63-.86 1.23-1.73 1.84-2.59.42-.6.86-1.2 1.27-1.8 1-1.44 1.94-2.88 2.86-4.32.34-.53.66-1.07 1-1.6.59-.94 1.19-1.89 1.75-2.83.36-.61.7-1.21 1.05-1.82.44-.77.89-1.54 1.31-2.31a95.09 95.09 0 0 1-2-3.88v-.06c-.767-1.54-1.503-3.08-2.21-4.62-.08-.16-.14-.32-.22-.49-.6-1.33-1.18-2.66-1.73-4l-.47-1.17c-.44-1.1-.88-2.21-1.29-3.32-.18-.48-.35-1-.52-1.45-.36-1-.71-2-1-3.05-.18-.53-.35-1.07-.52-1.6-.3-1-.59-2-.87-2.92-.16-.56-.32-1.11-.47-1.67-.26-1-.5-1.94-.74-2.91-.13-.55-.27-1.09-.39-1.64l-.12-.48-.05.09v-.09c-.07.11-.15.22-.22.34-.35.54-.72 1.08-1.08 1.63-.49.73-1 1.46-1.49 2.19-.4.57-.81 1.13-1.23 1.7-.42.57-1 1.38-1.53 2.07s-.87 1.13-1.32 1.69c-.45.56-1.09 1.37-1.65 2-.56.63-.9 1.09-1.36 1.63-.59.7-1.21 1.39-1.83 2.09l-1.34 1.51c-.72.78-1.47 1.56-2.21 2.33-.38.4-.75.8-1.14 1.19-1.13 1.15-2.29 2.3-3.49 3.43l-.81.75c-.84.78-1.68 1.57-2.55 2.34.12.79.26 1.58.4 2.37s.26 1.57.41 2.36c.12.61.26 1.24.39 1.86.82 4.08 1.82 8.207 3 12.38.08.26.14.52.22.78.35 1.24.74 2.49 1.13 3.74.15.49.29 1 .45 1.47.36 1.13.74 2.26 1.13 3.39.21.63.42 1.26.64 1.89.36 1 .74 2.06 1.12 3.09.28.76.56 1.53.86 2.29.3.76.71 1.83 1.07 2.74.22.53.43 1.07.65 1.6l1.32-1.46 1.51-1.81ZM86.16 275.06c-.58 1.33-1.14 2.66-1.69 4-.2.49-.39 1-.59 1.48-.48 1.22-1 2.46-1.43 3.71-.22.58-.43 1.16-.64 1.74-.43 1.19-.85 2.38-1.27 3.59-.22.63-.43 1.28-.64 1.93-.21.65-.47 1.43-.7 2.14l1.08-.15c1.26-.17 2.52-.36 3.77-.56l1.73-.29c1.26-.21 2.51-.43 3.76-.66l1.58-.31c1.27-.25 2.54-.51 3.79-.78l1.35-.31c1.31-.29 2.63-.59 3.92-.91l.74-.19a180.314 180.314 0 0 0 13.62-4.05l.39-.13c1.1-.38 2.19-.79 3.27-1.19l1.35-.5c.07-.31.15-.62.21-.93.48-2.227 1.003-4.42 1.57-6.58.14-.52.26-1.05.4-1.56.22-.79.46-1.57.69-2.35.23-.78.46-1.58.7-2.35.24-.77.48-1.47.73-2.21s.53-1.59.81-2.38c.28-.79.51-1.41.78-2.11s.59-1.58.9-2.36l.83-2 1-2.34c.28-.64.57-1.28.86-1.91.38-.81.77-1.6 1.16-2.4.28-.58.56-1.16.86-1.73l.19-.38h-.09v-.07c-1.23.39-2.48.75-3.73 1.1l-.47.13c-1.21.33-2.43.63-3.65.93l-.76.18c-1.21.28-2.42.54-3.65.79l-.73.14c-1.273.253-2.553.483-3.84.69l-.39.06a140.665 140.665 0 0 1-17.92 1.66c-.68 1.14-1.36 2.3-2 3.47l-.25.44a171.78 171.78 0 0 0-7.19 14.46c-.09.36-.23.71-.41 1.05ZM52.07 244.63c.31-.4.62-.8.94-1.19 1.213-1.5 2.433-2.977 3.66-4.43l.23-.27c1.15-1.34 2.3-2.65 3.47-3.94.43-.49.87-.95 1.31-1.43.81-.88 1.62-1.77 2.44-2.62.51-.54 1-1.06 1.55-1.59.75-.77 1.51-1.54 2.27-2.29.54-.54 1.09-1.06 1.64-1.59.74-.71 1.48-1.42 2.23-2.12l1.68-1.53c.75-.67 1.49-1.34 2.25-2l1.69-1.45 1.1-.94-1.3-.49-2.24-.85c-.87-.33-1.74-.68-2.61-1-.87-.32-1.56-.63-2.33-1s-1.67-.71-2.5-1.08l-2.45-1.09-2.35-1.12c-.86-.41-1.72-.81-2.58-1.24-.86-.43-1.43-.74-2.15-1.11-.92-.47-1.84-.93-2.76-1.43-.57-.3-1.13-.62-1.69-.92-1.88-1-3.76-2.11-5.64-3.21l-2.24-1.32-2.19-1.37c-.79-.49-1.58-1-2.37-1.48a278.836 278.836 0 0 0-40.11 32.38 277.188 277.188 0 0 0 48.74 16.68c.75-1.01 1.53-1.98 2.31-2.96ZM76.66 291.86c.32-1 .63-1.95.95-2.9.26-.76.54-1.51.8-2.26.71-2 1.45-4 2.2-5.94.28-.71.55-1.43.83-2.14.38-.95.78-1.88 1.18-2.82.32-.75.63-1.51.95-2.26.4-.91.81-1.81 1.22-2.71.34-.74.67-1.49 1-2.22.42-.89.85-1.76 1.27-2.62.42-.86.71-1.45 1.08-2.17.37-.72.88-1.7 1.33-2.54.45-.84.74-1.4 1.12-2.09.38-.69.92-1.65 1.39-2.47.19-.32.36-.65.55-1h-2.29c-1.13 0-2.27 0-3.41-.06h-.56a171.69 171.69 0 0 1-14.95-1.16c-1.72-.2-3.44-.43-5.17-.69l-.51-.08c-1.57-.24-3.15-.49-4.73-.77l-.87-.16c-1.49-.27-3-.54-4.48-.85l-.82-.17c-1.26-.26-2.52-.52-3.79-.8a278.66 278.66 0 0 0-26.6 44.19 282.118 282.118 0 0 0 51.55-1c.26-.81.52-1.56.76-2.31ZM216.21 344.46c-2.6-2.96-5.07-5.937-7.41-8.93l-.5-.66c-1-1.25-1.91-2.49-2.84-3.75-.31-.42-.6-.85-.91-1.27-.76-1-1.5-2.09-2.22-3.13l-1.09-1.6c-.63-.94-1.26-1.88-1.86-2.82-.39-.6-.76-1.19-1.14-1.79-.55-.88-1.09-1.76-1.62-2.63-.38-.64-.76-1.28-1.13-1.92-.24-.41-.5-.82-.73-1.23l-.76 1.28c-.37.62-.73 1.25-1.11 1.88-.54.9-1.1 1.79-1.66 2.69l-1.13 1.77c-.6.94-1.22 1.87-1.85 2.8l-1.13 1.67c-.67 1-1.37 1.94-2.07 2.91l-1.1 1.54c-.79 1.06-1.59 2.12-2.41 3.17-.32.42-.62.83-.95 1.25a203.728 203.728 0 0 1-7.24 8.72c-.41.47-.84.93-1.25 1.4-.75.84-1.5 1.69-2.27 2.53a280.003 280.003 0 0 0 24.94 45.12 278.034 278.034 0 0 0 24.93-45.12c-.95-1-1.87-2.08-2.8-3.12-.24-.25-.47-.5-.69-.76ZM336.61 251.34c-1 .22-2 .44-3.06.64s-1.81.35-2.72.52l-2.54.47c-1.09.19-2.17.36-3.25.52-.65.11-1.31.22-2 .31-1.25.19-2.5.35-3.74.5l-1.43.19c-1.36.16-2.71.3-4.05.43l-1.1.11c-1.36.12-2.72.22-4.07.31l-1.07.07c-1.25.08-2.49.13-3.73.18l-1.41.06h-5.54c.1.19.21.38.32.57.62 1.09 1.24 2.18 1.85 3.29l.66 1.21c.59 1.12 1.19 2.24 1.76 3.38.22.42.43.84.64 1.27.57 1.14 1.13 2.3 1.68 3.47.2.41.39.84.58 1.26.55 1.2 1.1 2.4 1.64 3.63.14.33.28.68.43 1a200.845 200.845 0 0 1 7.06 19.27 278.265 278.265 0 0 0 51.56 1 278.34 278.34 0 0 0-26.63-44.18l-1.84.52ZM267.74 274.59c.41 1.49.79 3 1.16 4.53.13.57.25 1.15.38 1.72.21.93.43 1.86.62 2.8l1.84.67c.9.34 1.8.68 2.72 1l2.05.68c1.9.63 3.84 1.23 5.8 1.81.66.19 1.31.4 2 .58.88.25 1.78.48 2.68.71.9.23 1.67.45 2.52.66.85.21 1.79.42 2.68.63.89.21 1.75.41 2.64.6l2.71.55c.9.18 1.8.37 2.71.54.91.17 1.83.32 2.75.48l2.78.47 2.79.41 1.7.24c-.29-.93-.58-1.86-.89-2.77l-.3-.92c-.51-1.5-1-3-1.57-4.46-.12-.32-.23-.64-.35-.95-.56-1.53-1.15-3-1.74-4.52-.09-.23-.18-.47-.28-.7a168.127 168.127 0 0 0-11.75-23.7h-.89c-2.32-.08-4.613-.213-6.88-.4l-1.46-.19-2.56-.28c-.76-.09-1.52-.17-2.27-.27s-1.67-.23-2.5-.36l-2.23-.34c-.84-.14-1.67-.29-2.5-.45l-2.11-.41-2.54-.55-1.94-.46-2.6-.67c-.58-.15-1.15-.32-1.73-.48-.91-.26-1.82-.52-2.71-.8l-.15-.05v.07h-.11c.08.14.15.29.22.43.28.54.54 1.09.81 1.64.41.83.82 1.66 1.21 2.5.29.63.56 1.25.84 1.88.28.63.69 1.57 1 2.37.31.8.57 1.36.84 2.05.27.69.6 1.52.88 2.29s.55 1.46.81 2.21.52 1.49.77 2.24c.25.75.51 1.54.76 2.32.25.78.46 1.53.68 2.3.22.77.49 1.56.71 2.35ZM224.58 335.7c.32-.9.63-1.81.93-2.71.3-.9.59-1.73.86-2.59.27-.86.52-1.67.77-2.5.25-.83.57-1.84.83-2.75.21-.72.4-1.43.59-2.14 1-3.627 1.867-7.22 2.6-10.78.15-.75.32-1.5.46-2.24.14-.74.27-1.54.4-2.31s.28-1.59.41-2.39a143.373 143.373 0 0 1-10.45-10.31l-.41-.47c-.96-1.06-1.9-2.13-2.82-3.21l-.58-.71c-.85-1-1.68-2-2.49-3.08l-.6-.77c-.8-1-1.57-2.09-2.33-3.14-.17-.24-.35-.48-.52-.73-.79-1.11-1.55-2.24-2.3-3.37-.11-.18-.23-.35-.34-.52l-.42-.63v.09l-.06-.09c0 .16-.08.32-.11.48-.13.58-.28 1.15-.42 1.72-.23.94-.46 1.88-.72 2.82-.16.6-.33 1.21-.51 1.81-.26.907-.53 1.817-.81 2.73-.19.61-.39 1.22-.59 1.83-.3.91-.61 1.82-.94 2.73-.21.59-.42 1.19-.64 1.78-.35.95-.72 1.9-1.1 2.85-.22.55-.43 1.09-.66 1.63a146.542 146.542 0 0 1-1.41 3.27c-.18.39-.34.79-.52 1.19a100.012 100.012 0 0 1-2.13 4.43c-.13.28-.28.55-.42.82-.54 1.06-1.08 2.12-1.65 3.17.44.81.91 1.62 1.38 2.43.31.55.62 1.1.94 1.64.63 1.06 1.29 2.11 1.95 3.16.26.42.51.85.78 1.27.92 1.44 1.87 2.873 2.85 4.3.51.74 1 1.48 1.56 2.21s1 1.43 1.52 2.14c.52.71 1.19 1.59 1.79 2.39.6.8 1 1.3 1.47 2s1.27 1.59 1.91 2.39c.52.65 1 1.3 1.56 1.94.56.64 1.29 1.55 1.94 2.32.65.77 1.15 1.36 1.74 2 .59.64 1.26 1.44 1.9 2.15l1.19 1.32.72-1.79c.32-.8.64-1.61.94-2.4.37-1 .72-1.92 1.08-2.88.36-.96.59-1.67.88-2.5ZM345.03 200.6l-1.06.66c-3.333 2-6.667 3.907-10 5.72l-.68.35c-1.41.74-2.82 1.47-4.23 2.17l-1.39.67c-1.17.56-2.33 1.12-3.5 1.65l-1.75.79c-1 .46-2.08.92-3.12 1.35-.65.28-1.31.55-2 .81-1 .4-1.93.78-2.89 1.15-.69.27-1.39.53-2.08.78l-1.37.52 1.11.95 1.68 1.45c.79.68 1.57 1.38 2.35 2.08l1.55 1.41c.84.78 1.67 1.58 2.51 2.39l1.33 1.28c.95.94 1.89 1.9 2.82 2.86.32.33.65.65 1 1 1.18 1.24 2.357 2.507 3.53 3.8l.2.22a205.61 205.61 0 0 1 10.71 12.9 277.526 277.526 0 0 0 48.78-16.68 276.624 276.624 0 0 0-40.13-32.37c-1.15.72-2.24 1.4-3.37 2.09ZM270.16 311.77c0-1.23-.12-2.44-.18-3.65 0-.59-.06-1.19-.1-1.78-.11-1.61-.24-3.2-.39-4.78 0-.18 0-.37-.05-.55-.353-3.64-.817-7.21-1.39-10.71a1.472 1.472 0 0 1 0-.21c-.24-1.43-.5-2.84-.78-4.24a139.47 139.47 0 0 1-13.21-6.06l-.72-.39c-1.18-.63-2.36-1.27-3.51-1.93l-1.05-.61c-1-.61-2.06-1.22-3.08-1.85l-1.13-.72c-1-.63-2-1.27-2.92-1.92l-1.06-.72c-1-.71-2-1.43-3-2.17l-.77-.56c-.19-.15-.38-.28-.57-.42v.09l-.08-.06v.1c.13 1 .23 2.06.34 3.09.05.48.1 1 .14 1.45.09 1 .16 2 .23 3l.09 1.6c.05 1 .09 2 .11 3v6.25c0 1-.05 2.09-.1 3.15 0 .44-.06.88-.08 1.33-.22 3.8-.597 7.643-1.13 11.53-.05.36-.09.72-.14 1.08a166.017 166.017 0 0 0 16.53 12.6c.17.12.35.23.53.34 1.34.89 2.69 1.77 4.07 2.64l1 .62c1.253.767 2.517 1.53 3.79 2.29l1.19.68c1.25.73 2.51 1.45 3.8 2.16l1.19.65 2.38 1.26c0-.65 0-1.3.07-2 0-.83.06-1.66.07-2.48V317.24c0-1.11 0-2.21-.06-3.31.04-.69.03-1.43-.03-2.16ZM256.58 323.06l-.79-.47c-1-.63-2-1.28-3-1.92-.55-.35-1.1-.7-1.64-1.06-.93-.61-1.84-1.24-2.74-1.87-.58-.39-1.16-.78-1.72-1.18l-2.61-1.89c-.56-.42-1.13-.83-1.68-1.25-.85-.64-1.68-1.28-2.51-1.93l-1.61-1.28c-.82-.65-1.62-1.31-2.41-2l-.76-.62c-.09.52-.2 1-.29 1.55l-.36 1.92c-.22 1.12-.45 2.25-.7 3.39-.12.57-.25 1.15-.38 1.73-.27 1.2-.57 2.41-.87 3.62-.13.53-.26 1.06-.4 1.59-.33 1.28-.69 2.57-1.06 3.86-.13.48-.26.95-.4 1.42-.42 1.42-.86 2.85-1.32 4.29-.11.34-.21.69-.32 1-1.16 3.56-2.44 7.16-3.84 10.77-.21.56-.45 1.11-.67 1.66-.42 1.08-.84 2.16-1.29 3.25a274.901 274.901 0 0 0 38.83 33.86 278.654 278.654 0 0 0 8-50.9c-.26-.14-.51-.28-.78-.41a181.005 181.005 0 0 1-12.68-7.13ZM155.43 288.61c0 .67.06 1.35.1 2 0 .93.1 1.85.16 2.79.053.667.113 1.367.18 2.1.08.92.17 1.85.27 2.78.08.71.16 1.43.25 2.15 0 .4.11.81.16 1.22l.93-.84 1.56-1.48c.68-.65 1.36-1.32 2-2 .49-.48 1-1 1.45-1.46.67-.69 1.33-1.4 2-2.1.44-.47.88-.94 1.3-1.42.68-.75 1.34-1.51 2-2.27l1.13-1.32c.7-.85 1.38-1.7 2.06-2.55.29-.38.6-.74.89-1.12.82-1.06 1.61-2.14 2.39-3.22l.38-.51c.91-1.28 1.78-2.56 2.63-3.86l.33-.54c.65-1 1.28-2 1.89-3.05-.14-.74-.24-1.49-.36-2.24-.09-.51-.18-1-.25-1.52-.12-.84-.22-1.68-.32-2.52-.07-.54-.15-1.07-.2-1.61-.09-.8-.15-1.61-.22-2.41-.05-.57-.11-1.14-.15-1.72 0-.75-.08-1.51-.12-2.27-.04-.76-.07-1.24-.09-1.86-.02-.62 0-1.39 0-2.08v-2.05c0-.68 0-1.19.05-1.78 0-.78 0-1.57.06-2.35 0-.37.05-.75.07-1.13.12-2.35.31-4.7.59-7a109.804 109.804 0 0 1-19 22l-.13.11c-.86.76-1.73 1.52-2.62 2.26-.17 1.06-.32 2.14-.46 3.22-.05.33-.1.66-.14 1-.18 1.52-.34 3-.46 4.58 0 .38 0 .76-.07 1.14-.08 1.16-.16 2.33-.21 3.51v1.7c0 1-.05 2-.05 3v1.92c-.013.907-.007 1.84.02 2.8ZM51.97 191.9c-1.63.93-3.25 1.88-4.87 2.87l-.32.19-2.84 1.78 1.82 1.14c.6.38 1.21.75 1.81 1.11 1.11.68 2.23 1.33 3.34 2l1.49.86c1.22.7 2.44 1.37 3.66 2l1.22.65c1.33.71 2.67 1.39 4 2.06.3.15.59.31.89.45 1.57.78 3.14 1.52 4.72 2.24l.18.09c1.67.75 3.34 1.48 5 2.17h.09c1.57.65 3.15 1.27 4.72 1.86.54.21 1.08.39 1.62.59.93.34 1.86.68 2.79 1 1-.77 2-1.52 2.93-2.25l.65-.5c1.34-1 2.69-2 4.05-2.9.28-.2.57-.38.86-.57 1.07-.73 2.15-1.45 3.23-2.14l1.24-.77c1-.6 1.94-1.19 2.91-1.76.45-.27.91-.52 1.36-.78.95-.54 1.9-1.07 2.86-1.58l1.39-.73c1-.5 1.92-1 2.89-1.45l1.38-.67c1-.46 2-.9 3-1.34l1.32-.58.52-.22h-.11.08l-.3-.13-2.09-.92c-.68-.3-1.35-.59-2-.91-.65-.32-1.53-.73-2.29-1.1l-1.8-.91c-.8-.4-1.58-.82-2.37-1.25l-1.72-.94c-.79-.45-1.59-.9-2.38-1.37-.57-.33-1.13-.68-1.7-1-.78-.48-1.57-.95-2.35-1.45l-1.77-1.17c-.74-.5-1.49-1-2.23-1.49-1.27-.88-2.55-1.79-3.81-2.73-.43-.31-.85-.65-1.28-1-.8-.61-1.6-1.21-2.4-1.84a173.02 173.02 0 0 0-29.25 13.36l-.14.03ZM75.23 224.06l-.81.72c-1.28 1.18-2.553 2.39-3.82 3.63l-1.11 1.11c-.89.89-1.79 1.79-2.67 2.71-.48.49-.95 1-1.42 1.51-.78.82-1.55 1.64-2.31 2.48-.52.57-1 1.16-1.54 1.73-.71.81-1.43 1.61-2.13 2.44-.54.63-1.08 1.27-1.61 1.91-.67.8-1.34 1.6-2 2.41-.66.81-1.11 1.39-1.67 2.09-.38.48-.75 1-1.13 1.46l1.17.25c1.16.24 2.32.49 3.48.71l2.36.44 3 .54 2.8.43 2.59.39c1.1.15 2.19.28 3.29.41.69.08 1.39.18 2.08.25 1.4.15 2.78.28 4.16.39l1.17.11c1.8.14 3.59.25 5.36.33h.33c1.63.07 3.25.12 4.86.14h4.72a138.803 138.803 0 0 1 8.37-12.12l.1-.12a92.656 92.656 0 0 1 3-3.67l.44-.52c.9-1.07 1.81-2.12 2.74-3.15l.56-.62c.92-1 1.86-2 2.8-3l.52-.54c1.04-1.04 2.09-2.06 3.15-3.06l.86-.82h-.11l.07-.06h-.48l-1.76-.11c-1-.06-1.93-.13-2.89-.22-.63-.05-1.25-.12-1.88-.19-.94-.09-1.88-.2-2.82-.32l-1.91-.26c-.95-.14-1.89-.29-2.84-.45l-1.89-.32c-1-.18-2-.38-3-.59l-1.76-.37c-1.13-.25-2.26-.52-3.39-.8l-1.34-.33c-1.567-.413-3.14-.853-4.72-1.32l-.95-.29c-1.12-.35-2.24-.69-3.36-1.06-.71.57-1.41 1.16-2.11 1.75-.5.42-1 .82-1.49 1.25-1.03.92-2.04 1.84-3.06 2.72ZM111.98 234.26l-.1.11c-.83.9-1.64 1.84-2.45 2.77l-.62.72c-.76.89-1.49 1.8-2.23 2.72-.24.3-.49.6-.73.91-.72.91-1.42 1.83-2.11 2.77l-.74 1c-.69.95-1.37 1.9-2 2.88-.24.33-.47.67-.7 1-.67 1-1.33 2-2 3-.09.13-.17.27-.26.41 2.5-.11 5-.26 7.41-.49a120.276 120.276 0 0 0 28-6 108.266 108.266 0 0 1 20.15-25.58 109.902 109.902 0 0 1-32.25 4.66 115.88 115.88 0 0 0-9.37 9.12ZM126.16 280.91l2.27-1c.74-.35 1.49-.69 2.22-1.05.73-.36 1.35-.67 2-1 .65-.33 1.54-.78 2.3-1.19l1.79-1c.8-.44 1.6-.88 2.38-1.34.52-.3 1-.61 1.54-.92.83-.5 1.66-1 2.47-1.51l1.2-.79c2.667-1.74 5.237-3.57 7.71-5.49.64-.5 1.29-1 1.92-1.5.08-.51.19-1 .28-1.51.15-.78.28-1.56.44-2.33.12-.54.25-1.08.37-1.62.18-.8.35-1.61.55-2.42.12-.48.26-.95.38-1.43.23-.86.44-1.71.69-2.56.11-.4.24-.8.36-1.19.28-.92.56-1.85.86-2.76l.28-.82c.35-1 .7-2.06 1.08-3.08l.07-.18c1.41-3.78 3.029-7.48 4.85-11.08a108.99 108.99 0 0 1-28.7 15.43c-.57 1-1.13 2.06-1.67 3.11-.1.19-.21.38-.3.57-.71 1.38-1.38 2.79-2 4.21-.08.17-.15.35-.23.52-.56 1.24-1.1 2.49-1.63 3.76-.16.39-.31.8-.47 1.19-.42 1.07-.84 2.13-1.23 3.22-.18.47-.34.95-.51 1.43-.36 1-.72 2.07-1.06 3.12-.16.5-.31 1-.47 1.52-.33 1.05-.65 2.11-.95 3.18-.14.5-.27 1-.41 1.49-.3 1.13-.6 2.26-.88 3.41-.1.44-.21.89-.32 1.34-.11.45-.23 1.08-.35 1.62l1.06-.44 2.11-.91ZM105.8 202.85l-2 1-2.12 1.16c-.67.37-1.34.73-2 1.11-.66.38-1.36.8-2 1.21-.64.41-1.38.82-2.06 1.25-.68.43-1.3.83-1.95 1.25-.65.42-1.42.92-2.12 1.4-.7.48-1.24.85-1.86 1.29-.62.44-1.45 1-2.17 1.55l-1.78 1.33c-.33.24-.64.49-1 .74l1.18.38 2 .61 2.67.74 2 .54 2.69.64c.67.15 1.33.31 2 .45l2.88.56 1.91.36c1 .17 1.95.32 2.93.46.57.09 1.15.19 1.73.26 1.14.16 2.28.28 3.42.4l1.21.14c1.53.14 3.07.26 4.6.34h1.09c1.07 0 2.13.09 3.2.1.51-.43 1-.84 1.55-1.27.55-.43.93-.77 1.4-1.14.69-.55 1.38-1.07 2.08-1.59.4-.3.79-.61 1.19-.9.77-.56 1.55-1.1 2.33-1.64.35-.24.69-.49 1.05-.73.82-.56 1.65-1.09 2.49-1.62l1-.63c.84-.52 1.7-1 2.55-1.52l1-.59c.79-.46 1.61-.89 2.42-1.32l1.22-.67 1.88-.94a112.9 112.9 0 0 1 5.58-2.59 109.694 109.694 0 0 1-31.93-6.64c-.81.31-1.62.64-2.42 1-.54.22-1.08.42-1.61.65-1.35.57-2.69 1.18-4 1.81-.79.33-1.51.7-2.23 1.06ZM89.75 140.76c-5.31.07-10.74.41-16.26 1h-.15c-1.77.19-3.56.42-5.35.67l-.57.08c-1.66.24-3.32.49-5 .78l-.81.14c-1.59.27-3.19.57-4.8.89l-1 .2-2.82.6.9 1.17c.67.84 1.33 1.68 2 2.5.67.82 1.13 1.37 1.7 2.05.57.68 1.25 1.5 1.88 2.24.63.74 1.24 1.43 1.87 2.13.63.7 1.18 1.36 1.78 2 .6.64 1.34 1.45 2 2.17.66.72 1.13 1.23 1.71 1.83.58.6 1.4 1.42 2.1 2.13.7.71 1.12 1.14 1.69 1.7.57.56 1.15 1.09 1.72 1.63a158.118 158.118 0 0 0 5 4.6c.25.21.49.44.74.66 1.033.88 2.063 1.74 3.09 2.58l.64.54a138.207 138.207 0 0 1 14.06-3.88l.81-.17c1.31-.28 2.62-.54 3.92-.78l1.21-.21c1.19-.2 2.37-.39 3.54-.55l1.34-.19c1.16-.15 2.32-.28 3.47-.4l1.26-.13c1.26-.11 2.51-.2 3.76-.28l.88-.05.72-.05h-.07.1l-.35-.34c-.45-.41-.88-.83-1.32-1.25-.68-.65-1.35-1.3-2-2-.47-.47-.93-.94-1.39-1.42-.62-.64-1.24-1.29-1.84-1.95-.6-.66-1-1-1.41-1.55-.41-.55-1.16-1.32-1.74-2l-1.39-1.64-1.67-2.08c-.44-.56-.89-1.12-1.33-1.69-.59-.77-1.16-1.56-1.74-2.35-.38-.51-.76-1-1.13-1.54-.92-1.3-1.83-2.61-2.71-4-.25-.37-.49-.76-.73-1.14-.58-.9-1.16-1.79-1.72-2.7h-3.47l-1.12.05ZM124.34 65.39l.64.36a209.786 209.786 0 0 1 6.73 3.92c.69.42 1.4.83 2.09 1.26.85.53 1.68 1.07 2.51 1.61.83.54 1.42.9 2.11 1.36.85.56 1.67 1.13 2.5 1.7l1.94 1.34 2.49 1.8c.59.44 1.19.87 1.78 1.32.83.62 1.64 1.25 2.45 1.88l1.64 1.3c.81.65 1.61 1.3 2.39 2 .25.21.52.41.76.62.07-.39.15-.79.23-1.18.15-.9.32-1.79.5-2.69.18-.9.31-1.55.48-2.32.2-1 .4-1.9.62-2.85.17-.75.36-1.51.54-2.26.24-1 .48-1.94.73-2.91.2-.77.42-1.54.63-2.3.27-1 .53-1.92.81-2.89.25-.82.51-1.65.77-2.48.26-.83.56-1.83.86-2.75.3-.92.67-2 1-3 .44-1.333.9-2.633 1.38-3.9.43-1.18.86-2.35 1.32-3.54.34-.87.7-1.75 1.06-2.63.36-.88.61-1.56.94-2.35a273.762 273.762 0 0 0-38.83-33.88 278.624 278.624 0 0 0-8 50.93l1 .54c1.38.66 2.67 1.3 3.93 1.99ZM121.79 118.99c-.42-1.53-.83-3.08-1.2-4.65-.12-.5-.23-1-.34-1.52-.23-1-.46-2-.67-3l-1.91-.71c-.87-.31-1.73-.64-2.61-.95-.88-.31-1.53-.51-2.29-.76-1.573-.52-3.163-1.02-4.77-1.5-.92-.27-1.83-.56-2.75-.81-.92-.25-1.69-.45-2.53-.67-.84-.22-1.77-.48-2.67-.7-.9-.22-1.73-.4-2.59-.6-.86-.2-1.82-.43-2.74-.63l-2.63-.53c-.94-.19-1.87-.38-2.81-.55-.94-.17-1.78-.32-2.68-.47-.9-.15-1.92-.33-2.89-.48l-2.69-.4-1.79-.25c.3.93.59 1.86.9 2.77l.33 1c.533 1.56 1.08 3.1 1.64 4.62l.27.77a180.51 180.51 0 0 0 1.88 4.83l.15.4a170.464 170.464 0 0 0 11.7 23.63c1.17 0 2.33.1 3.49.16h1c1.64.1 3.26.23 4.88.38.49 0 1 .11 1.48.16 1.12.12 2.24.24 3.35.39l1.85.26c1 .14 1.95.29 2.92.45l1.92.35c.93.17 1.86.35 2.78.54l1.91.41 2.74.65 1.84.47c.94.25 1.87.52 2.79.79l2.16.63-.06-.1h.09c-.05-.08-.09-.17-.14-.26-.34-.67-.67-1.35-1-2-.33-.65-.68-1.4-1-2.1-.32-.7-.63-1.39-1-2.09s-.63-1.45-.94-2.18l-.87-2.13c-.3-.76-.59-1.52-.88-2.28-.29-.76-.53-1.43-.79-2.15s-.56-1.62-.83-2.44c-.27-.82-.47-1.39-.69-2.1-.29-.91-.56-1.84-.83-2.77-.11-.62-.3-1.24-.48-1.88ZM116.75 194.87c1-.37 2-.73 3.08-1.07.22-.08.45-.14.67-.21 1.09-.35 2.18-.69 3.28-1l.58-.16c1.13-.32 2.25-.62 3.38-.9l.6-.14c1.13-.27 2.26-.54 3.4-.77l.67-.13c1.11-.22 2.23-.44 3.35-.63l.87-.13c1.05-.17 2.11-.34 3.17-.48l1.36-.19c.92-.11 1.83-.22 2.75-.31 1.23-.11 2.47-.2 3.71-.27h.39a111.26 111.26 0 0 1-14.77-7.7l-.17-.11c-1.11-.7-2.22-1.41-3.3-2.15-.09 0-.16-.11-.24-.16-1.06-.72-2.11-1.46-3.15-2.22l-.3-.23c-1-.75-2-1.5-3-2.28l-.34-.28c-.84-.67-1.68-1.34-2.5-2H120c-3.815.07-7.623.337-11.41.8-.55.06-1.1.11-1.65.19-.92.12-1.84.27-2.76.41l-1.86.3c-.92.16-1.85.34-2.77.52l-1.84.37c-.95.2-1.9.41-2.85.64-.59.14-1.18.27-1.77.42-1 .24-1.95.5-2.93.77l-1.67.47-3 .9-.69.22 1.1.85 1.5 1.11c.88.65 1.77 1.28 2.66 1.9l1.3.9c1 .67 2 1.31 2.95 2l1.07.69c1.1.68 2.19 1.34 3.3 2l.79.47c1.26.73 2.51 1.42 3.77 2.09l.38.21a112.84 112.84 0 0 0 12.46 5.63l.67-.34ZM119.29 81.73c.05 1.22.12 2.43.19 3.64 0 .6.05 1.2.09 1.79.11 1.62.25 3.23.4 4.83v.49a156.4 156.4 0 0 0 2.21 15.13 144.691 144.691 0 0 1 13.2 6l1 .51c1.11.59 2.2 1.19 3.28 1.8l1.22.71c1 .57 1.95 1.16 2.91 1.75l1.25.79c.95.6 1.88 1.22 2.8 1.84l1.15.78c1 .69 2 1.38 2.9 2.09l.86.63.52.39v-.1l.08.06-.06-.55c-.06-.47-.11-.94-.16-1.41-.12-1.09-.24-2.18-.33-3.28 0-.5-.08-1-.11-1.5-.08-1.08-.14-2.16-.19-3.25 0-.52-.02-1.04-.06-1.56-.04-1.08-.06-2.17-.06-3.27v-1.57c0-1.12 0-2.25.08-3.38v-1.49c.06-1.26.14-2.53.23-3.81 0-.36 0-.72.07-1.09.13-1.64.29-3.28.48-4.94 0-.31.09-.63.13-.95.14-1.17.29-2.35.46-3.53a164.535 164.535 0 0 0-16.44-12.51l-.93-.6c-1.21-.8-2.42-1.59-3.66-2.37l-1.36-.83c-1.13-.7-2.27-1.39-3.43-2.07l-1.48-.86c-1.16-.67-2.34-1.34-3.53-2l-1.39-.76c-.75-.41-1.51-.81-2.27-1.21 0 .66-.06 1.32-.08 2 0 .82-.05 1.64-.07 2.46V76.17c0 1.11 0 2.22.07 3.33 0 .76.01 1.5.03 2.23ZM51.46 142.41a189.403 189.403 0 0 1 35.49-4.57H92.54l-.42-.76c-.55-1-1.1-1.92-1.64-2.9-.28-.51-.56-1-.83-1.55-.55-1-1.08-2-1.61-3.07-.25-.49-.49-1-.74-1.5-.54-1.08-1.07-2.17-1.59-3.27-.21-.44-.41-.89-.61-1.33-.55-1.19-1.09-2.38-1.62-3.6l-.35-.81c-2.58-6.04-4.913-12.373-7-19-.06-.19-.13-.37-.19-.56a276.996 276.996 0 0 0-51.54-1 281.17 281.17 0 0 0 26.59 44.14l.47-.22ZM177.82 116.79l-.56-.9a125.37 125.37 0 0 0-2.58-3.79l-.71-1c-.67-.93-1.35-1.85-2.05-2.76l-1.09-1.38c-.61-.76-1.22-1.53-1.86-2.29-.41-.5-.85-1-1.27-1.49-.61-.7-1.22-1.41-1.85-2.11-.46-.51-.94-1-1.41-1.52-.62-.68-1.25-1.35-1.9-2-.49-.51-1-1-1.5-1.52l-2-2-1.59-1.5-.92-.84c-.05.41-.11.82-.16 1.23-.09.72-.18 1.44-.25 2.15-.1.91-.19 1.81-.27 2.72-.06.73-.13 1.47-.18 2.2-.05.73-.11 1.73-.16 2.59-.05.86-.08 1.51-.1 2.27-.02.76 0 1.64-.05 2.45-.05.81 0 1.56 0 2.33v2.34c0 .78 0 1.58.06 2.37s.09 1.53.13 2.29c.04.76.09 1.56.15 2.34.12 1.48.27 3 .44 4.42.07.53.15 1.06.22 1.59.13.9.25 1.8.39 2.69.78.65 1.53 1.31 2.29 2l.51.44c.8.72 1.59 1.45 2.37 2.18.23.23.48.45.72.67.7.68 1.38 1.37 2.06 2.06.3.3.6.59.89.89.62.64 1.22 1.3 1.83 2 .33.36.67.71 1 1.08.56.62 1.09 1.26 1.64 1.9.35.41.71.82 1.06 1.24.52.62 1 1.26 1.52 1.9.35.44.71.88 1.05 1.33.52.68 1 1.37 1.53 2.06l.92 1.26c.8 1.12 1.58 2.26 2.33 3.42-.16-1.37-.3-2.74-.41-4.12 0-.43-.05-.86-.08-1.29-.07-.94-.13-1.88-.17-2.82v-1.58c0-.85-.06-1.7-.06-2.54v-4.12c0-.62.06-1.23.09-1.84 0-.76.07-1.52.12-2.28.05-.76.11-1.3.17-2 .06-.7.12-1.43.19-2.14.07-.71.18-1.4.26-2.1.08-.7.16-1.33.26-2 .1-.67.24-1.51.37-2.26.08-.53.16-1 .25-1.57-.5-.85-1.07-1.75-1.64-2.65ZM41.16 194.94a201.767 201.767 0 0 1 23-12.74l.62-.29c1.29-.6 2.57-1.16 3.85-1.72l1-.43c1.21-.52 2.42-1 3.63-1.5l1.19-.47c1.17-.45 2.34-.89 3.51-1.31l.6-.23c-.47-.39-.93-.8-1.39-1.2l-1.17-1c-.91-.79-1.81-1.6-2.71-2.42l-1.31-1.19c-.86-.8-1.71-1.61-2.56-2.44-.46-.43-.91-.87-1.37-1.32-.85-.84-1.69-1.7-2.54-2.57l-1.35-1.34c-.94-1-1.87-2-2.8-3l-1-1a205.454 205.454 0 0 1-7.49-8.81l-.31-.39c-1-1.2-1.93-2.41-2.88-3.65a276.212 276.212 0 0 0-48.74 16.7 280.739 280.739 0 0 0 40.22 32.32Z"/></svg>
