<svg xmlns="http://www.w3.org/2000/svg" viewBox="0 0 599 165"><path d="M300.22 77.65c7.79-6.48 11.57-15 10.06-25.22-1.56-10.54-10.93-18-24.17-19.46-17.76-2-35.59-.63-53.38-1.1-3-.08-3 1.73-3.4 3.74-7.08 33.3-14.22 66.583-21.42 99.85-.77 3.53.45 3.84 3.38 3.8 9-.14 18 0 29.25 0 11.15-.4 24.71.88 38-2.38 24.46-6 34.65-30.83 20.52-50.58-2.89-4.05-2.28-5.78 1.16-8.65Zm-24.86-4.74c-1.43 1.14-2.85 2.3-4.19 3.54-7 6.45-7.45 11.5-1.82 19.13.69.94 1.4 1.86 2.08 2.81 8.13 11.24 3.69 23.63-9.77 27-2.34.484-4.708.818-7.09 1-13.27.12-14-.88-11.56-12.31 4.56-21.11 9.15-42.22 13.42-63.39.82-4.07 2.85-5.46 6.54-6 8.71-1.18 16.35 2.14 19.07 8.51 2.89 6.89.44 14.05-6.68 19.71ZM587.23 65.99c-9.3-5.48-19.53-7.39-30.21-6.94-24.95 1-43.27 15.28-48.14 37.32-4.95 22.38 6.72 39.91 29 43.28a93.024 93.024 0 0 0 19.45.62c9-.46 18-1 26.94-1.32 2.66-.08 3.73-.92 4.23-3.58 2.93-15.51 6.11-31 9.09-46.48 2.1-10.95-.71-17.19-10.36-22.9Zm-19.2 19.86c-2.06 12.42-5 24.68-7.57 37-.4 2-1.86 2.58-3.44 3.18-6.09 2.32-13.35-.65-16.42-6.73-1.53-3-2.18-6.68-2.18-12.13.09-8.07 1.6-15.82 5.56-22.94 2.23-4 5.2-7.33 9.52-9.15 8.72-3.69 16.07 1.46 14.53 10.77ZM159.79 95.67a286.674 286.674 0 0 0-28.84 2.34c-14 1.86-28 4.48-40.82 10.71-20.28 9.82-28.58 28.69-35.85 48.27-1 2.56.91 2.68 2.46 3.22a83.215 83.215 0 0 0 26 4.12c38.06.36 73.14-28 80.52-64.9.67-3.37-.38-3.85-3.47-3.76ZM56.98 69.1C44.44 57.69 29.92 49.36 14.8 41.91c-2.83-1.4-4-.64-5.34 1.92A83 83 0 0 0 .01 79.2c-.34 23.53 7.35 43.91 23.89 60.89 2.1 2.16 3.8 2.4 6.41.87 13-7.57 24.08-17.18 32.26-29.88 11.2-17.39 9.76-28.03-5.59-41.98ZM127.06 13.02c-2.46-1.64-3.77-1.43-5.63.92a204.302 204.302 0 0 0-24.5 38.07c-3.7 7.64-6.88 15.49-7.88 24-.88 7.59 1.64 11.07 9.1 12.91 4.1 1 8.24 1 12.4 1.11 17.33-.27 33.81-4.56 50.06-10.22 3.65-1.27 4.38-3.24 3.93-6.64-3.407-25.707-15.9-45.757-37.48-60.15ZM499.52 62.93c-10.89-4.91-22.15-5.52-33.7-3.35a33 33 0 0 0-18.29 9.53c-10.78 11.23-8.88 26.66 4.39 34.77 4.24 2.6 8.78 4.72 13.14 7.14 2.85 1.58 5.43 3.43 4.72 7.34-.67 3.71-3.1 5.71-6.5 6.84a15.092 15.092 0 0 1-7.89.25c-7.17-1.45-12.65-5.56-17.6-11.78-1.38 6.44-2.39 12.19-3.89 17.8-.8 3 .17 4.23 2.73 5.27a61.39 61.39 0 0 0 42 1.92 27.931 27.931 0 0 0 14.91-11.19c7.71-11.1 5.47-24.24-5.73-31.74-4.54-3-9.53-5.43-14.29-8.13-3-1.72-4.77-4.18-4.07-7.8.7-3.62 3.13-5.38 6.51-6 6.86-1.27 12.75 1.13 18.18 5 1.67 1.2 3.22 2.55 5 4 1.14-5 2.06-9.59 3.22-14.09.74-2.86.01-4.5-2.84-5.78ZM57.34 57.02c4.31 2.5 8.77 4.76 15.37 5.13 3.94.51 6.72-3.4 9.55-6.78a150.715 150.715 0 0 0 26.36-47.21c1.05-3 .39-4-2.56-4.82-31.007-8.16-58.244-1.35-81.71 20.43-2.14 2-2.46 3.33-.3 5.58 10.05 10.5 20.64 20.32 33.29 27.67ZM375.05 61.04c-15.12-.59-30.27-.31-45.41-.61-2.71-.05-3.37 1.24-3.82 3.35-5.09 23.87-10.13 47.75-15.39 71.58-.78 3.56.21 4.21 3.5 4.12a378.797 378.797 0 0 1 22 0c2.93.08 4.07-.93 4.62-3.73 1.91-9.77 4-19.5 6.11-29.24 2-9.42 4-18.83 6-28.26.46-2.2 1.21-3.68 3.9-3.34 1.54.2 2.13.41 2.24 2.29.54 9.25 5.66 13.72 17.42 13.72a14.54 14.54 0 0 0 13.2-9.05c4.6-10.31-2.03-20.35-14.37-20.83ZM427.88 61.06c-3.46.32-7 .07-10.48.07-4 0-8 .13-12 0-2.28-.1-3.29.78-3.74 2.94-4.23 20.34-8.66 40.63-12.72 61-1.57 7.85 3.63 14.16 11.66 14.82 3.81.31 7.67 0 11.48.27 2.73.21 3.82-.84 4.3-3.4 1.09-5.88 2.38-11.72 3.62-17.57 3.81-17.88 7.58-35.77 11.5-53.62.72-3.43.16-4.86-3.62-4.51ZM422.17 22.93a16.08 16.08 0 0 0-16.2 16.1 15.844 15.844 0 0 0 4.655 11.46 15.833 15.833 0 0 0 11.475 4.62 16.261 16.261 0 0 0 16.31-16 16.271 16.271 0 0 0-16.24-16.18Z"/></svg>
