<svg xmlns="http://www.w3.org/2000/svg" viewBox="0 0 206 70"><path d="M19.094 0c-.724 0-1.522.61-2.19 1.671l-11.808 18.8c-.747 1.18-.798 1.995-.605 2.324.193.33.904.727 2.317.727h24.594c1.404 0 2.132-.39 2.318-.727.185-.337.146-1.143-.605-2.324l-11.82-18.8C20.618.61 19.82 0 19.094 0ZM29.664 8.775l4.535 7.218h29.983V8.775H29.664ZM8.523 8.775H0v7.218h3.981l4.542-7.218ZM64.182 34.04H0v7.21h64.182v-7.21ZM64.182 59.294H0v7.216h64.182v-7.216ZM92.427 70.002V54.465a12.906 12.906 0 0 1 4.403-.689c2.13.026 4.262 1.08 4.262 3.628v4.932c0 2.386-2.153 3.697-4.331 3.672a8.483 8.483 0 0 1-3.5-.712v4.707h-.834Zm.834-5.577a9.557 9.557 0 0 0 3.523.732c1.735-.02 3.474-.916 3.45-2.776v-4.978c.024-1.974-1.689-2.776-3.404-2.776-1.135 0-2.317.041-3.569.482v9.316ZM104.012 57.454c0-2.429 2.176-3.625 4.331-3.646 2.153.02 4.308 1.217 4.308 3.646v4.935c0 2.434-2.155 3.626-4.308 3.651-2.155-.025-4.331-1.217-4.331-3.651v-4.935Zm.832 0v4.935c0 1.972 1.802 2.824 3.499 2.824s3.471-.852 3.471-2.824v-4.935c0-1.97-1.802-2.806-3.471-2.806-1.668 0-3.499.829-3.499 2.806ZM120.317 53.915v.802a4.51 4.51 0 0 0-1.481.048c-1.287.296-2.41 1.192-2.41 2.73v8.354h-.832v-8.354c0-1.95 1.411-3.212 3.173-3.557a4.862 4.862 0 0 1 1.55-.023ZM126.826 65.874c-2.175 0-4.004-1.02-4.004-3.65V49.6h.832v4.358h2.596v.824h-2.596v7.438c0 2.158 1.689 2.847 3.172 2.847v.806ZM128.912 57.454c0-2.429 2.179-3.625 4.331-3.646 2.156.02 4.308 1.217 4.308 3.646v4.935c0 2.434-2.152 3.626-4.308 3.651-2.152-.025-4.331-1.217-4.331-3.651v-4.935Zm.835 0v4.935c0 1.972 1.802 2.824 3.496 2.824 1.695 0 3.474-.852 3.474-2.824v-4.935c0-1.97-1.802-2.806-3.474-2.806-1.671 0-3.496.829-3.496 2.806ZM141.535 64.172a.886.886 0 0 1 .813.54.863.863 0 0 1-.19.95.886.886 0 0 1-1.355-.132.866.866 0 0 1 .109-1.102.884.884 0 0 1 .623-.256ZM153.213 57.286c0-1.926-1.762-2.707-3.544-2.707a4.17 4.17 0 0 0-2.987 1.171c-.208-.204-.347-.413-.515-.551.976-1.02 2.271-1.398 3.639-1.398 2.152 0 4.236 1.145 4.236 3.485v8.103a14.498 14.498 0 0 1-4.677.666c-2.201-.023-3.962-1.53-3.962-3.878.025-2.618 2.155-3.72 4.447-3.72a8.497 8.497 0 0 1 3.347.666l.016-1.837Zm0 7.568v-4.95a9.983 9.983 0 0 0-3.405-.69c-1.854 0-3.569.733-3.589 2.963 0 2.02 1.388 3.118 3.219 3.144 1.208.021 2.414-.11 3.589-.39l.186-.077ZM161.988 53.915v.802a4.516 4.516 0 0 0-1.481.048c-1.287.296-2.41 1.192-2.41 2.73v8.354h-.834v-8.354c0-1.95 1.414-3.212 3.172-3.557a4.88 4.88 0 0 1 1.553-.023ZM168.5 65.874c-2.178 0-4.009-1.02-4.009-3.65V49.6h.824v4.358h2.593v.824h-2.593v7.438c0 2.158 1.689 2.847 3.175 2.847l.01.806ZM171.786 49.76a.804.804 0 0 1 .801.956.814.814 0 0 1-1.607-.15.825.825 0 0 1 .806-.806Zm-.371 4.178h.834v11.936h-.834V53.938ZM175.795 63.392c.971 1.309 2.248 1.88 3.662 1.834 1.287-.02 2.961-.824 2.938-2.551 0-1.766-1.645-2.271-2.987-2.524-1.851-.321-3.96-.964-3.96-3.212 0-3.605 5.235-4.04 7.156-1.952l-.515.597c-1.581-1.74-5.701-1.485-5.83 1.36.023 1.88 2.016 2.179 3.288 2.409 1.785.321 3.605 1.125 3.636 3.317 0 2.112-1.831 3.26-3.726 3.304a5.014 5.014 0 0 1-2.447-.513 4.964 4.964 0 0 1-1.887-1.628l.672-.441ZM193.166 57.286c0-1.926-1.761-2.707-3.54-2.707a4.174 4.174 0 0 0-2.993 1.171c-.208-.204-.347-.413-.515-.551.971-1.02 2.272-1.398 3.636-1.398 2.156 0 4.239 1.145 4.239 3.485v8.103a14.513 14.513 0 0 1-4.682.666c-2.199-.023-3.957-1.53-3.957-3.878.023-2.618 2.155-3.72 4.447-3.72a8.494 8.494 0 0 1 3.347.666l.018-1.837Zm0 7.573v-4.955a9.963 9.963 0 0 0-3.404-.69c-1.854 0-3.566.733-3.589 2.963 0 2.02 1.387 3.118 3.218 3.144a14.35 14.35 0 0 0 3.59-.39l.185-.072ZM197.407 65.849v-11.27c1.388-.48 2.871-.87 4.378-.87 2.106.043 4.215 1.237 4.215 3.625v8.515h-.834v-8.515c0-1.906-1.738-2.776-3.381-2.776a9.992 9.992 0 0 0-3.546.687v10.604h-.832ZM103.093 4.544c-.273 0-.572.227-.822.623l-4.447 7.055c-.28.441-.298.747-.226.872.072.125.34.27.865.27h9.27c.515 0 .803-.142.868-.27.064-.127.056-.431-.23-.872l-4.439-7.055c-.257-.396-.556-.623-.832-.623h-.007ZM120.332 8.64h27.411v2.074h-12.659v35.55h-2.093v-35.55h-12.659V8.639ZM165.284 29.84c3.968 5 8.74 11.377 12.762 16.482h-2.467L162.815 29.84h-8.058v16.482h-2.088V8.695h13.782c6.808 0 12.015 3.134 12.177 10.574 0 8.075-4.988 10.57-12.123 10.57h-1.221Zm1.231-1.802c6.651 0 10.042-2.34 10.042-8.716 0-6.325-4.181-8.675-10.042-8.555h-11.758v17.271h11.758ZM205.985 46.264h-22.954V8.694h22.954v2.067h-20.858v15.623h19.258v2.123h-19.263v15.679h20.857l.006 2.077Z"/><path d="M94.53 44.194V28.566h19.262v-2.125H94.531V10.767h2.59l1.306-2.074h-5.982v37.57h22.951v-2.069H94.531ZM107.756 8.744l1.3 2.074h6.332V8.744h-7.632Z"/></svg>
