<svg xmlns="http://www.w3.org/2000/svg" viewBox="0 0 179 78"><path d="M52.066 48.763a12.6 12.6 0 0 0 2.668 4.208l-.009-.009a12.5 12.5 0 0 0 4.21 2.872c.896.377 1.83.65 2.786.816L40.97 77.57 18.265 54.68c.42.279.856.53 1.307.754.979.478 2.01.839 3.074 1.073 1.256.272 2.54.403 3.824.388 1.32.013 2.63-.201 3.878-.633a9.43 9.43 0 0 0 3.074-1.76 8.197 8.197 0 0 0 1.963-2.544v4.587h17.7V50.84h-11.62v-4.366h9.943c.152.78.372 1.547.658 2.289ZM0 36.253 35.903 0l40.982.009v41.324H63.192v5.7h7.091a5.879 5.879 0 0 1-2.167 2.958 6.29 6.29 0 0 1-3.703 1.055 7.763 7.763 0 0 1-2.899-.529 6.465 6.465 0 0 1-2.289-1.512 6.88 6.88 0 0 1-1.482-2.325 8.196 8.196 0 0 1-.522-2.989 7.665 7.665 0 0 1 .558-2.938 7.314 7.314 0 0 1 1.52-2.343 6.99 6.99 0 0 1 2.254-1.548 6.808 6.808 0 0 1 2.76-.565 7.135 7.135 0 0 1 3.406.774c.626.34 1.19.787 1.663 1.321l4.32-4.354c-.91-.85-1.931-1.57-3.034-2.143-1.794-.938-3.925-1.408-6.391-1.408a13.514 13.514 0 0 0-5.31 1.02 12.34 12.34 0 0 0-4.134 2.778 12.43 12.43 0 0 0-1.738 2.23V30.84H35.4v3.479c-.467-.455-.94-.88-1.42-1.28a11.777 11.777 0 0 0-2.271-1.443c-.841-.4-1.727-.696-2.639-.881a15.726 15.726 0 0 0-3.178-.3 11.405 11.405 0 0 0-3.774.598 9.002 9.002 0 0 0-2.932 1.656 7.722 7.722 0 0 0-1.92 2.502c-.018.034-.032.07-.046.107-.01.026-.02.053-.032.078V30.84H11.04v16.542L0 36.252Zm53.078.29.017-.028v.027h-.017Zm0 0a12.485 12.485 0 0 0-.959 1.939c-.295.74-.524 1.505-.684 2.286H41.48v-4.226h11.598Zm-25.194 4.193-2.113-.512v.015a12.737 12.737 0 0 1-1.643-.493 2.87 2.87 0 0 1-1.05-.651 1.374 1.374 0 0 1-.364-.987 2.155 2.155 0 0 1 .733-1.584c.488-.47 1.256-.705 2.306-.705a6.042 6.042 0 0 1 3.21.79 6.848 6.848 0 0 1 2.2 2.235l4.234-3.324v9.504a6.893 6.893 0 0 0-1.945-2.16 9.752 9.752 0 0 0-2.668-1.336 30.281 30.281 0 0 0-2.9-.792Zm-10.586.842a6.469 6.469 0 0 0 1.888 2.131h.01a9.483 9.483 0 0 0 2.584 1.303c.979.317 1.921.581 2.829.792.907.211 1.686.406 2.339.583a9.971 9.971 0 0 1 1.642.58c.381.163.717.417.978.741.218.307.329.678.314 1.055a2.15 2.15 0 0 1-.803 1.727c-.534.445-1.324.667-2.372.667a6.907 6.907 0 0 1-3.702-.95 8.524 8.524 0 0 1-2.668-2.675l-3.149 2.54V41.34c.017.034.032.068.047.103.02.047.04.094.063.136Zm106.651 1.06a6.12 6.12 0 0 1-2.448-.476 5.826 5.826 0 0 1-1.892-1.291 5.764 5.764 0 0 1-1.215-1.922 6.451 6.451 0 0 1-.433-2.364 6.351 6.351 0 0 1 .448-2.39 5.744 5.744 0 0 1 3.145-3.196 6.417 6.417 0 0 1 4.011-.25c.503.139.987.34 1.441.597.445.25.854.56 1.218.92.358.359.669.76.928 1.196l-2.449 1.566a3.212 3.212 0 0 0-1.09-1.252 2.913 2.913 0 0 0-1.649-.46 3.068 3.068 0 0 0-2.274.962c-.281.304-.5.66-.646 1.049a3.655 3.655 0 0 0 0 2.55c.22.592.617 1.102 1.135 1.459a3.03 3.03 0 0 0 1.762.534 2.81 2.81 0 0 0 1.76-.541c.47-.36.839-.836 1.074-1.381l2.579 1.387a6.452 6.452 0 0 1-.913 1.342c-.36.405-.772.76-1.225 1.054a5.663 5.663 0 0 1-1.506.688 6.169 6.169 0 0 1-1.752.242l-.009-.024Zm-34.8-11.943h8.069v2.615h-5.283v1.937h5.283v2.615h-5.283v2.002h5.283v2.613h-8.07V30.695Zm13.794 8.12-2.016 3.662H97.82l3.555-6.082-3.315-5.7h3.009l1.921 3.422 1.921-3.422h3.042l-3.394 5.78 3.522 6.002h-3.152l-1.986-3.661Zm13.962-8.12h-8.069v11.782h8.069v-2.612h-5.282v-2.003h5.282v-2.615h-5.282V33.31h5.282v-2.615Zm15.89 11.62c.63.223 1.295.333 1.963.323l.008-.009c.665.008 1.327-.1 1.954-.323a3.987 3.987 0 0 0 1.482-.935c.417-.425.738-.934.943-1.495a5.65 5.65 0 0 0 .338-2.032v-7.149h-2.84v7.15a2.062 2.062 0 0 1-.528 1.517 1.871 1.871 0 0 1-1.378.532 1.79 1.79 0 0 1-1.367-.532 2.104 2.104 0 0 1-.504-1.518v-7.149h-2.834v7.158a5.716 5.716 0 0 0 .335 2.032c.208.56.53 1.07.946 1.495.42.418.926.737 1.482.935Zm11.007-9.02h-3.169v-2.6h9.027v2.6h-3.137v9.182h-2.721v-9.181Zm7.12-2.6h2.816v11.782h-2.816V30.695Zm3.523 0h2.914l2.752 7.96 2.771-7.96h2.897l-4.323 11.782h-2.688l-4.323-11.782Zm20.075 0h-8.067v11.782h8.067v-2.612h-5.283v-2.003h5.283v-2.615h-5.283V33.31h5.283v-2.615Zm-85.372 14.18h8.07v2.615h-5.283v1.937h5.283v2.615h-5.283v2h5.283v2.614h-8.07V44.875Zm12.212 9.152V47.49l1.227-.005a3.9 3.9 0 0 1 1.45.25c.399.153.762.39 1.064.694.289.296.512.65.655 1.04.153.413.23.85.226 1.291.005.438-.071.873-.226 1.282a3.042 3.042 0 0 1-1.731 1.734 3.63 3.63 0 0 1-1.384.25h-1.281Zm1.367-9.151h-4.15l-.007 11.78h4.204a6.328 6.328 0 0 0 2.41-.45 5.84 5.84 0 0 0 1.912-1.235c.54-.53.967-1.164 1.257-1.865.309-.74.464-1.537.457-2.34a6.079 6.079 0 0 0-.439-2.331 5.582 5.582 0 0 0-1.242-1.865 5.788 5.788 0 0 0-1.921-1.243 6.624 6.624 0 0 0-2.481-.451Zm11.856 11.942c-.667.01-1.331-.1-1.96-.323a4.003 4.003 0 0 1-1.482-.935 4.196 4.196 0 0 1-.943-1.495 5.71 5.71 0 0 1-.338-2.035v-7.155h2.834v7.149a2.134 2.134 0 0 0 .504 1.518 1.805 1.805 0 0 0 1.37.532 1.84 1.84 0 0 0 1.375-.532 2.062 2.062 0 0 0 .528-1.518v-7.149h2.834v7.149a5.756 5.756 0 0 1-.335 2.035 4.238 4.238 0 0 1-.945 1.495 4 4 0 0 1-1.483.935 5.64 5.64 0 0 1-1.953.323l-.006.006Zm9.285-.476a6.133 6.133 0 0 0 2.449.475l.009.02a6.182 6.182 0 0 0 1.752-.241 5.64 5.64 0 0 0 1.506-.685 6.02 6.02 0 0 0 1.224-1.058c.36-.405.666-.855.913-1.339l-2.579-1.39a3.424 3.424 0 0 1-1.07 1.381 2.808 2.808 0 0 1-1.761.541 3.014 3.014 0 0 1-1.765-.53 3.059 3.059 0 0 1-1.135-1.463 3.7 3.7 0 0 1 0-2.55c.146-.389.367-.745.65-1.048.28-.298.617-.537.99-.703.404-.176.84-.264 1.28-.257a2.903 2.903 0 0 1 1.652.46c.464.314.839.745 1.088 1.25l2.448-1.566a6.01 6.01 0 0 0-.927-1.196 5.683 5.683 0 0 0-1.219-.917 6.257 6.257 0 0 0-1.441-.598 6.405 6.405 0 0 0-4.008.251 5.744 5.744 0 0 0-3.145 3.195 6.311 6.311 0 0 0-.451 2.39 6.45 6.45 0 0 0 .433 2.365 5.642 5.642 0 0 0 3.107 3.213Zm11.946-3.897h2.754l-1.376-3.954-1.378 3.954Zm.033-7.57h2.688l4.323 11.781h-2.834l-.593-1.757h-4.465l-.611 1.757h-2.816l4.308-11.781Zm5.489 2.597h3.169v9.184h2.721v-9.184h3.14v-2.597h-9.03v2.597Zm13.105-2.597h-2.816v11.781h2.816V44.875Zm8.437 8.916a3.094 3.094 0 0 1-1.272.257v-.01a3.047 3.047 0 0 1-2.268-.968 3.213 3.213 0 0 1-.655-1.04 3.498 3.498 0 0 1 .664-3.586 2.994 2.994 0 0 1 1.002-.712 3.196 3.196 0 0 1 2.511 0 3.21 3.21 0 0 1 1.69 1.76 3.428 3.428 0 0 1-.664 3.587 3.077 3.077 0 0 1-1.008.712Zm-3.611 2.549c.739.32 1.535.481 2.339.475a5.804 5.804 0 0 0 2.351-.475 6 6 0 0 0 1.897-1.291 6.097 6.097 0 0 0 1.637-3.126 6.13 6.13 0 0 0-.362-3.515 6.096 6.096 0 0 0-1.281-1.922 5.95 5.95 0 0 0-6.581-1.297 5.996 5.996 0 0 0-3.169 3.219 6.219 6.219 0 0 0 0 4.719 5.956 5.956 0 0 0 3.169 3.213Zm9.475-11.465h2.914l4.403 7.068v-7.068h2.656v11.781h-2.704l-4.595-7.409v7.41h-2.674V44.874Z"/></svg>
