<svg xmlns="http://www.w3.org/2000/svg" viewBox="0 0 579 649"><path d="M547.89 45.08C461.12 7.32 360.55.02 289.97.02c-70.58 0-171.24 7.32-258 45.08-19.46 8.44-31 25.4-31 49.84 0 263.11 102.17 428.24 263.83 543.4 7.61 5.42 16.55 10.33 25.12 10.33s17.46-4.92 25-10.33c161.74-115.16 263.87-280.32 263.9-543.4.01-24.44-11.5-41.4-30.93-49.86Zm-236.23 588.6c-7.5 5.34-15.08 9.26-21.71 9.26-6.63 0-14.28-3.92-21.78-9.26C108.02 519.59 6.79 356.19 6.75 94.94c0-22.3 10.28-37.11 27.49-44.6C119.91 13.02 219.6 5.73 289.97 5.73c70.37 0 170 7.32 255.64 44.61 17.21 7.49 27.49 22.3 27.48 44.6-.05 261.25-101.28 424.65-261.43 538.74Z"/><path d="M195.71 408.42c-3 1.92-3.13 6-4.75 9.74-1.42 3.31-3.56 5.81-3.16 10h.55c4.31-3.61 10.65-7.44 9.77-15.32-.01-1.6-2.41-4.42-2.41-4.42ZM251.02 296.02c6.64 1.16 13.05.34 19.81-1.4v-1.39c-5.94-6-13.52-12.43-15-21.49-.93-2 .93-5.23-2.21-5.34-3.85 1.51-2.45 6-3.15 9.29-3.5 3.72-7.81 7.32-6.41 13 .67 3.79 3.58 5.88 6.96 7.33ZM287.72 294.91c-5.61 0-7.74 3.91-8.61 4.24-2.42 2-2 5.24-5.82 7.92-3.82 2.68-8.43 5.59-12.86 4.53-7.31-1.77-7.69-9.57-15.44-5.77-5.52 2.69-6.91 7-8.14 9.15-1.39 2.8-4.14 8.56-10.39 4.4-3.08-2.05-4.32-6.52-9.46-3.21-4.43 4.18-5.57 19.87-8.06 23.53-6.1 9.68-9.07 22.88-9.57 24.69 0 0-1.25 4.71-1.66 6.81-.41 2.1-2.74 16.22 1.26 17.31 6.37 1.72 16.09-14.14 17.8-15.94 6.35-6.69 7.39-10.33 9.28-13 2.08-2.88 5.89-3.63 9.29-3.45 1.07.05 9.45.75 13.72 1.4a85.114 85.114 0 0 1 11.75 2.66c1.63.43 1.76 2 .3 2.63-3.57 1.52-5.9 1.36-8 1.91a8.234 8.234 0 0 0-5.13 3.87 51.739 51.739 0 0 0-3.14 9.9c-.32 2-2.32 8.07.32 11 1.43 1.58 6.24 2.35 10.45 2.5 4.21.15 20.06-1.51 21.34-1.56 3.73-.14 8.23 0 11.9.14 1.37.07 11.61.25 10.6-3.72-.57-1.92-4.33-10.81-5.29-12.6-3.64-6.79-6.22-8.08-8.45-15.29-1.54-5-.34-7.05.12-9.72a30.167 30.167 0 0 1 8.8-11.89c11.34-9.33 12.54-10.85 8.34-21.28-6.16-10.34-4.61-11.16-6.62-15.89-1.88-4.4-4.33-5.28-8.63-5.27ZM403.33 380.81c.8.44 4 1 4.86-1.85a38.1 38.1 0 0 0 1.21-9.92c0-2.85-.69-7.64-1.22-12-.41-3.47-3-8.28-4.7-7.87-1.33.31-2.43 3.93-4.4 7.26-2.74 5.28-5.78 7-5.23 9.13.55 2.13 8.67 14.82 9.48 15.25ZM316.06 143.33c-3.47-2.19-7.56-4.24-10.53-4.15-1.18.34-2.09 2.13-1.92 3.47 3.47 2.57 9.43 1.98 12.45.68ZM255.56 402.89a23.59 23.59 0 0 0-4 6c-.92 2.24-3.53 3.28-2.25 5.6 9.36.14 8.25-5 10.12-10.33-1.09-1.71-1.8-2.03-3.87-1.27ZM323.34 202.39c2 .4 1.81-1.44 4-1.31.68-1.27-2.77-6.5-6.53-7.76-1 0-2.73-.72-3.12.87 2 2.92 4.28 8.83 5.65 8.2ZM334.21 259.59c3.47 1.82 5.55-1.47 8.82-1.42 2.91-30.28-31.4-35.49-24.93-22.69.94 3.74-3.63-.44-6.22.22-8.91 1.72-9.36 8.64-5.53 11.12 8.16 3.61 10.2-3.76 14.82 1.32a9.93 9.93 0 0 1 1.83 2.45c.05 6.07 7.47 4.43 11.21 9ZM225.3 90.47c0-7.44-4.39-10.19-10.23-9.87-2.6.32-5 .49-7.47.81v21.36c2.76-.16 5.52-.48 8.44-.64 5.68-.49 9.26-3.73 9.26-11.66ZM224.16 61.82c0-6.63-3.73-8.73-8.77-8.25-2.59.16-5.19.49-7.79.65v18.29c2.43-.33 5-.49 7.63-.81 5.04-.33 8.93-3.56 8.93-9.88ZM263.77 100.51c4.06-.16 6.66-3.4 8.28-7.93 1.63-4.86 2.28-11.17 2.28-17.32 0-6.31-.65-12.63-2.44-17.32-1.62-4.69-4.54-7.93-8.44-7.77-4.22 0-6.82 3.4-8.44 8.09-1.63 4.86-2.11 11.17-2.11 17.32 0 6.31.65 12.63 2.27 17.32 1.8 4.53 4.55 7.61 8.6 7.61ZM322.87 60.85c0-7-4.06-9.87-9.9-10-2.92-.16-5.85-.16-8.77-.32v19.9c2.92.16 5.85.16 8.77.16 6.17.14 9.9-2.57 9.9-9.74ZM108.73 76.07c-.49 2.59-2 10.52-2.92 15.21-.82 3.72-1.63 7.77-2.44 11.66 3.57-1 7.14-1.78 10.71-2.76-.81-3.39-1.78-6.8-2.59-10.36-.81-4.2-2.28-11.49-2.76-13.75Z"/><path d="M539.19 64.94c-82.63-36-179.6-43.27-249.24-43.27-69.64 0-166.69 7.35-249.32 43.27-11 4.81-17.89 13.66-17.89 30 0 256.1 98.77 414.67 254.73 525.77 7.17 5.12 11.25 6.29 12.48 6.29 1.23 0 5.19-1.15 12.41-6.29 156-111.1 254.69-269.67 254.73-525.77 0-16.34-6.86-25.19-17.9-30Zm-95.53-9.43 9.58 1.95v66l-9.58-1.94V55.51Zm-51.63-8.25c3.09.32 6.34.81 9.42 1.29V75.1c6.33.81 12.66 1.78 19 2.75V51.31c3.08.48 6.16 1 9.41 1.61v66.2c-3.25-.65-6.33-1.13-9.41-1.62V86.91c-6.34-1-12.67-1.94-19-2.75v30.75c-3.08-.48-6.33-.81-9.42-1.13V47.26Zm-46.59 4.53c3.41-5.83 8.6-9.06 15.58-8.58 11 1 16.24 7.77 18.19 18-3.25.48-6.33 1-9.58 1.62-1.46-7.13-4.06-9.71-8.77-10.2-3.73-.16-6.49 2.27-8.11 6.64-1.79 4.36-2.6 10.51-2.6 17.64a56.429 56.429 0 0 0 2.27 16.83c1.79 4.86 4.71 8.42 9.09 8.74 6.33.49 8.61-3.07 8.61-11.17v-4.69c-2.44-.33-5-.49-7.47-.65v-9.06l17.21 1.45v14.66c0 5.34-1.46 10.36-4.55 13.92-2.92 3.4-7.79 5.34-14.45 4.86-7.3-.49-12.34-4.7-15.58-11-3.41-6.31-4.87-14.89-4.87-24.44 0-10 1.62-18.58 5.03-24.57Zm-50.66-10.36c6.34.16 12.67.16 19 .32 5 .17 9.74 1.62 13.15 4.7s5.68 7.93 5.68 14.57a20.397 20.397 0 0 1-2.92 11.32 15.136 15.136 0 0 1-7.63 5.83c1.78 5.18 3.57 10.36 5.36 15.7 1.78 5 3.57 10.2 5.36 15.38-3.41-.17-7-.33-10.39-.33-1.79-5-3.58-9.87-5.2-14.73-1.62-4.86-3.41-9.71-5-14.72-2.76 0-5.36 0-8-.17v29.14h-9.42l.01-67.01Zm-46.75 10.04c3.24-6.48 8.44-10.36 15.58-10.69 7-.16 12.18 3.56 15.43 9.72s4.87 14.72 4.87 24.44-1.63 18.44-4.87 24.6c-3.41 6.15-8.45 10-15.59 10.19-7.14.19-12.18-3.4-15.42-9.38-3.25-5.83-4.71-14.41-4.71-24.12s1.46-18.45 4.71-24.76Zm-49.85-5.35c5.69-.48 11.21-1 16.89-1.61 5.36-.33 10.07.64 13.31 3.23 3.41 2.59 5.36 7 5.36 13.11 0 5.51-2.44 11.49-7.79 14.41 5.68 1.62 8.93 7.28 8.93 14.56 0 6.64-1.95 11.66-5.2 15.22-3.25 3.56-8 5.66-13.64 6-6 .48-11.85 1.13-17.86 1.62V46.12ZM82.59 135.3c-10.39 3.56-20.78 7.29-31 11.17v-67c3.08-1.14 6.17-2.27 9.41-3.4v57.78c7.15-2.75 14.29-5.18 21.6-7.45l-.01 8.9Zm37.34-10c-.65-2.75-1.3-5.66-2-8.42l-2-8.25c-5 1.13-9.9 2.27-14.61 3.56-.81 3.24-1.46 6.31-2.11 9.39-.49 3.24-1.14 6.31-1.79 9.38-3.4 1-6.65 1.95-10.06 2.92 2.76-12 5.52-23.79 8.28-35.61 2.76-11.65 5.52-23.47 8.28-35.28 3.253-.967 6.5-1.777 9.74-2.43 2.76 10.36 5.52 20.72 8.28 31.24 2.6 10.19 5.36 20.71 8.28 31.23-3.47.62-6.88 1.43-10.25 2.24l-.04.03Zm28.25-5.83c-2.92.49-5.84 1.14-8.93 1.62V55.02c3.41-.65 6.66-1.3 9.9-1.94l4.39 13.1c1.46 4.37 2.92 8.75 4.38 12.95 1.14 3.89 3.57 11.66 4.06 13.92.81-2.59 3.08-11.33 4.38-15.37 1.3-4.86 2.76-9.55 4.22-14.41 1.47-4.69 2.93-9.39 4.39-14.24 3.25-.49 6.49-.81 9.9-1.3v66.36c-3.25.33-6.33.81-9.25 1.13V88.69c0-4.21 0-13.92.16-16.51-.81 2.76-3.73 12.95-5.2 18-1.46 4.69-3.08 9.39-4.38 14.24l-4.38 14.57-4.39-13.11c-1.46-4.53-2.76-8.9-4.22-13.11-1.62-4.53-4.54-13.6-5.19-16.19 0 2.59.16 12.14.16 16.35v26.54Zm308.87 221.47c-29.07 19.86-47.64-11.64-58.4-13.17.6-3.23 4.52-9.77-.52-13-1.59-1-4 2.54-7.83-3.84-2.32-3.88-5.38 2.34-8.5-.29-2-1.65-4-4.28-6.76-4-2.32.22-2.79-.31-4 .55-.9.67-1.16 1.35-1.83 3-.5 1.28-.41 3.81.82 4.56 1.23.75 2.69 2.41 6.79 3 .9.13.36 1.32.48 2-4.2 2.51-9.36.36-13.2-1.44.86-2.642.881-5.485.06-8.14-1.32-3.83-5.16-5.63-8.63-6-1 .86-.75 1.74-.39 2.65 3.24 4.53.85 10.58-1.36 10.45-14-2.46-10.77 10.24-.65 13.61 10.59 3.52 18.18 4.38 28.3 0 1.86-.8 2.39.19-.8 3.1a28.142 28.142 0 0 1-9.93 5.28 33.081 33.081 0 0 1-8.19 1.37s-27 2.8-38.07-20.1c-6.55-19.13 17.66-19.67 21.94-19.67h1.29c2.28-1.56.36-3.59-.84-4.91-3-3.82-8.28-2.15-12.72-2.63-4.2 1.08-7.08 4.07-10.56 6.1-1.56.12-2.28-1.31-3.84-2a26.349 26.349 0 0 0-16.31-1.67c-2.52 2-.25 5.5 0 8.25 2.27 5 3.74 11 8.63 14.11 1.79 1.39 4.39 3.12 6.34 4.86 3.88 3.45 4.62 10.2 4.09 11.6-.87 2.36-4.87 9.13-5.69 10.47-3.67 6.07-7.1 10.5-9.5 18.13a57.19 57.19 0 0 0-2.24 9.26c-.35 2.22-2.15 6.72 1.4 9.83 3.9 3.42 6.52-13.76 17.36-14.51 1.18-.87 0 4.56-4 14.71-1.43 3.62-1.67 4.63-2.47 7.08-.88 2.72-2.16 4.74-3.46 10.26a54.734 54.734 0 0 0-1.06 9.56c-.35 3.13 1 5 1.59 5.3a2.391 2.391 0 0 0 2.028.423 2.396 2.396 0 0 0 1.602-1.313c.4-1 0-3.82 1.79-4.87 1.79-1.05 5.4-.2 6 2.43a6.309 6.309 0 0 1-.36 3.85 7.475 7.475 0 0 1-3.53 2.83c-3.7 1.56-.44 5.88 4.63 4 5.23-2 8.82-1 11.74-.61 2.51.35 5.53.44 8.21-1.26.73-.46 1.72-2.89 3.19-4.6 1.47-1.71 1.17-.86 2.84-2.48 2.61-2.54 1.34-5.56 1.17-6.75-.54-3.56.14-5.51.28-7.78.14-2.45 1.59-5 2.27-7.53a36.015 36.015 0 0 1 3.64-7.49c.76-1.3 4-5 5.1-6.55 1.1-1.55 3.11-3.17 6-5.89a35.717 35.717 0 0 1 5.11-3.93c2.65-1.75 4.85-3.24 6.13-3.91 1.07-.56 5.73-2.61 7.59-4.07 3.79-1.94 9.08-15.86 9.69-24.77 2.25 1.72 10.82 7.38 12.44 8.73 1.34 8.25 5.89 26.18 5.29 29.67-1.53 8.88-4.45 18.21-3.69 28.07 2.61 6.28 3.8 13.22 2.06 20.26 2.29 5.42 6.85 12.68 2.07 18.2-2.61 1.84-4.13 4.77-7.28 5.2-1.31-1.19.87-7.84-2.82-6.43-1.31 1.51-.66 5.35-2.07 6.43-4.89-1.08-8.48-4.66-11-8.77-1.3-6.94 6.52-11 4.13-18.53-3.81-8.13 5.22-14.41 1.3-22.86-2.61-7.26-10-18.84-15-25-1.87 1.27-4 2.4-6.9 4.61-1.9 1.3-4.2 3.39-5.63 4.59a40.653 40.653 0 0 0-6.83 7.75c-3.09 4.87-5.61 9-6.35 16.21-.36 3.38.13 4.29.34 8.95a8.658 8.658 0 0 1-1.56 5.08c-1.57 2-2.87 1.4-4.65 4.25-.89 1.6-2.59 5.45-4.58 5.95-7 1.79-17.46-1.5-26.19 1.24a12.707 12.707 0 0 1-10.3-2.78c-3.71-2.88-5.1-8.79-5.83-13.84a21.915 21.915 0 0 0-2.11-7 24.732 24.732 0 0 0-2.51-4.23 12.365 12.365 0 0 0-3.41-1.13c-1.74-.23-2.73 5.41-3.43 6.22a33.008 33.008 0 0 0-.1 4.81c.44 2.76 1.32 8.19-2.28 11.46-1.08 1-.53 1.07-3.3 2.21-.58 6.12-1.06 9.51-2.49 13.27-1.23 2.13-12 7.23-18.13 7a7.708 7.708 0 0 1-3.39-.2c-2.87-2.13-.45-5.29-1.81-6.36-2.33.81-5.16 4.52-7.95 2.08-1.29-1.51.35-3.28 1.63-5.14 3.38-6.51 4.22-11.87 11.33-15.35 1.19-1.86 3-5 4.85-7.63 1.56-2.24 3.19-4 4.15-6.2 1.4-3.43 1.92-8.09 1.15-8.45-5.44-2.55-11.13 1.73-13.66 9.89-2.34 7.55-4.35 10.12-10.81 14.21-8.63 7.32-13.67 19.33-16.44 27.27-.4 1.15-2.88 1.34-3.28 2.12.16 2.24.34 6.49-2.53 9-5 4.65-16.61 8.67-21.1 6-2.11-1.27 4.54-7.55-.35-7.2-2 .46-4.29 4.64-6.39 3.95-4-1.29-2.13-15.28.25-20.94 2.47-3 11.11-2.79 11.78-9.89 8.62-2.56 13.32-5.74 17.55-12.18 2.18-3.3 1.74-7 2.86-10.71a36.609 36.609 0 0 1 5-10c-1.63 0-4.08-.5-4.91-1.74-4.58-6.81 6.34-22.7-5.7-28.82-4.72 3.94-11 14.15-13.95 19.07-3 7-8.34 12.91-11.08 20-1.43 12.14-6.48 21.88-15 30.64-7.25 9.08 1.76 22.43-8.67 29.44a76.37 76.37 0 0 1-4.17 15c-6.48 4.16-15.11 6.33-22.25 4.15l3-10c-6.28-.58-3 8.76-9.47 7.12-3.19-8.75 2.52-16 8.45-21 1.53-.33 1.42-2.19 1.86-3.39 2.64-11.27 15.15-15.32 17.35-26.59.33-10.51 1.64-20.69 8.45-28.57 3.62-8.75.66-19.25 1.87-29.21.11-15.1 12.86-28.15 10.66-44.23-.81-11.39 3.2-23.35 8.48-31.81 6.75-13.83 21.38-24.3 20-41 1.75-15.1 6.53-31.83 21.79-39.61 7-4.18 14.55-7.8 21.66-11.52a278.038 278.038 0 0 0 29.31-22.37c4.58-4 12.44-4.94 17.68-3.64 12.11 4.18 23.57 9.64 36.35 12.54a59.456 59.456 0 0 1 18.05 3.85c13.7 4.88 25.9-29.64-15.83-31.68l-51.19-.57c-43.25-2.13-56.61-10.42-45.26-25.25 29.82-26.89 85.66-7.9 93.69-1 1.11.94-3.52 5.87-26.47-1a19.332 19.332 0 0 0-10 .81s5.61 4.63 12.23 4c1.73 0 10.87 1.73 3.62 4.24-26.94 9.11-42.81-9.79-54.66-11-6.14-.83-21.68 13.41-8 17.17 35.1 9.24 67.64 1.8 97.93 6.17 11.41 1.86 22.91 9.36 27.11 20.39 3.31 11.21.71 15.33-3.83 23.69 6.41 9.33 10.56 14.82 13.5 25.06 9 9.52 14.2 21.78 14.42 33.39 0 13.33-4.56 18.13-2.81 25.26 3.22 13.55 5.22 11.78 1.67 26.41a26.607 26.607 0 0 0-8.12-.89c.3-3.55 1.42-9.55 1.18-11.45-.32-2.53-4.73-11.28-4-17.44.94-7.9 5.9-18.43 4.27-27.15-1.41-7.55-3.19-13.4-6.95-17.53-2.38-3.09-4.9-6.72-5.7-9.76-2.19-8.32-7-13.62-8.66-16.42-3.39-5.73-3.4-6.62-6.81-5.89-2.69.57-8.92 1.61-8.92 1.61-3.82 1-5.75 1.27-8.42 3-1.87 1.51-1.4 3.95-.23 5.58 2.79 2.55 7.69 2.55 7.8 7.32-2.94 9.85 11 17.07-1.39 20.44-6.06.47-9.46-2.73-14.12-7.71-6.41-12.9-11.12-18.35-19.86-27.69-2.44-1.16-8-5-10.67-3.18v2c8.19 14.69 13.2 20 20.24 33.79 7.85 15.42 9.66 20.78 15 35.82.91 3.42 1.15 6.07-.15 6.86-1.73 0-3.26-5.87-4.75-8.55-1.68-3-1.6-5-2.7-7.07-7.29-12.49-9.19.65-16.34 1.4-3.08.85-8-3.74-8.57 2.13a3.56 3.56 0 0 0 .284 3.083 3.553 3.553 0 0 0 2.596 1.687c6.18-.19 12.45 1.94 16 6.76-.07.59-.07 1.87-1.27 1.51-2.57-1.29-2.84-3.77-6.06-3.91-1.93.46-8.2 0-7.46 3.11 1 2.7.07 3.14 2.48 4.47 7.56.24 15.12 1.79 19.92 8.61 1 2 1.55 4.2 4.43 4.07l7.5-.24c21-.84 38.2 11.19 38.59 15.33 15.84-3.23 20.41 14.84 32.53 20.11 5.15 2.23 11.51 3.11 17.15.72 5.64-2.39 7.61-.9.81 3.76Zm-115.88 23.82c.15 1.74-1.75 2.61-3.2 2.75-2.91.73-5-2.32-6.26-4.2-1.6-2.76-.87-6.09 0-9l1-.72c1.62 4.35 3.37 10.01 8.46 11.17Zm163.7-227.03c-2.6-1-5.2-1.78-7.63-2.59-2.76-6.79-5.52-13.43-8.28-20.23-2.76-6.8-5.36-13.43-8.12-20.07-1.3-3.07-3.89-9.87-4.71-12 0 2.42.17 10 .17 13.11v33.17l-9.26-2.42v-66c3.09.65 6.33 1.46 9.42 2.27 2.43 6 4.87 11.81 7.31 17.8 2.43 5.83 4.87 12 7.3 17.81 1.3 3.23 3.9 10.19 4.71 12.3 0-2.59-.16-10.2-.16-13.44v-29c3.08.81 6.17 1.78 9.25 2.75v66.54Zm23.38 8.79c-3.08-1.29-6.33-2.42-9.42-3.72V76.07c3.09 1.13 6.34 2.26 9.42 3.4v67.05Z"/></svg>
