<svg xmlns="http://www.w3.org/2000/svg" viewBox="0 0 173 41"><path d="M65.955 25.385c.395 0 .772.045 1.134.136.36.09.705.214 1.032.372l1.71-.305v12.033h-2.048v-4.113l-.034-.017a4.48 4.48 0 0 1-.923.415 3.808 3.808 0 0 1-1.21.178 4.098 4.098 0 0 1-1.582-.305c-.49-.203-.92-.49-1.286-.863a4.103 4.103 0 0 1-.871-1.345 4.585 4.585 0 0 1-.322-1.752c0-.654.112-1.254.338-1.802a4.25 4.25 0 0 1 .923-1.405c.389-.39.851-.69 1.387-.905a4.678 4.678 0 0 1 1.752-.322zm65.933-3.926a8.57 8.57 0 0 1 1.878.22 6.09 6.09 0 0 1 1.76.677v2.166a6.972 6.972 0 0 0-1.903-.871c-.66-.186-1.244-.28-1.752-.28-.576 0-1.046.119-1.413.356s-.55.615-.55 1.133c0 .328.073.59.22.788.147.197.347.36.6.49.254.13.548.243.88.339.333.096.686.2 1.058.313.451.136.886.296 1.303.482a4.49 4.49 0 0 1 1.1.685c.316.271.568.605.754.999.186.395.279.875.279 1.439 0 .575-.105 1.091-.313 1.548a3.293 3.293 0 0 1-.872 1.16c-.372.315-.82.558-1.345.727a5.632 5.632 0 0 1-1.735.254c-.61 0-1.252-.079-1.93-.237a7.484 7.484 0 0 1-1.86-.694v-2.25c.304.225.628.417.972.574.344.159.683.288 1.016.39.333.101.654.178.964.229.31.05.595.076.855.076.61 0 1.111-.133 1.506-.398s.593-.686.593-1.26c0-.34-.077-.613-.229-.821a1.756 1.756 0 0 0-.618-.517 4.626 4.626 0 0 0-.914-.347 30.566 30.566 0 0 1-1.117-.33 12.19 12.19 0 0 1-1.243-.466 4.079 4.079 0 0 1-1.058-.66 3.022 3.022 0 0 1-.736-.972c-.186-.383-.28-.846-.28-1.388 0-.553.099-1.05.297-1.49.197-.44.476-.812.837-1.116a3.806 3.806 0 0 1 1.304-.703 5.51 5.51 0 0 1 1.692-.245zM49.59 25.385a5.58 5.58 0 0 1 1.506.195c.463.13.852.324 1.168.584.282.237.5.536.652.896.152.362.228.802.228 1.32v3.199c0 .226.045.412.135.559.09.146.237.22.44.22.147 0 .3-.04.457-.12v1.609a2.59 2.59 0 0 1-1.016.203c-.337 0-.66-.062-.964-.186a1.707 1.707 0 0 1-.745-.576h-.034c-.26.203-.597.387-1.014.55-.418.164-.903.246-1.456.246-.339 0-.674-.042-1.007-.127a2.71 2.71 0 0 1-.922-.432 2.238 2.238 0 0 1-.686-.804 2.414 2.414 0 0 1-.245-1.108c0-.462.098-.86.296-1.193.197-.333.454-.607.77-.82a3.006 3.006 0 0 1 1.083-.45 6.404 6.404 0 0 1 2.081-.076c.26.034.52.08.78.136v-.491c0-.496-.136-.874-.407-1.134-.304-.27-.773-.406-1.405-.406-.507 0-.97.074-1.387.22a5.69 5.69 0 0 0-1.117.525v-1.862a4.978 4.978 0 0 1 1.201-.482 6.11 6.11 0 0 1 1.608-.195zm68.742 0a4.2 4.2 0 0 1 1.482.263c.468.174.88.434 1.234.778.356.345.641.77.855 1.278.214.508.322 1.094.322 1.76 0 .135-.003.279-.009.431a2.63 2.63 0 0 1-.042.398h-6.008c.124.7.437 1.224.94 1.574.5.35 1.108.525 1.819.525.53 0 1.035-.088 1.514-.263.48-.175.922-.409 1.329-.702v1.879a4.82 4.82 0 0 1-1.413.575 6.757 6.757 0 0 1-1.633.203 5.343 5.343 0 0 1-1.853-.313 4.377 4.377 0 0 1-1.473-.88 3.984 3.984 0 0 1-.964-1.363 4.4 4.4 0 0 1-.347-1.776c0-.654.115-1.253.347-1.794a4.18 4.18 0 0 1 .93-1.38c.39-.378.84-.67 1.355-.88a4.243 4.243 0 0 1 1.615-.313zm-32.238 0a4.2 4.2 0 0 1 1.48.263c.469.174.88.434 1.235.778.356.345.641.77.855 1.278.215.508.322 1.094.322 1.76 0 .135-.003.279-.009.431-.005.153-.02.286-.041.398h-6.008c.124.7.437 1.224.939 1.574.501.35 1.108.525 1.819.525.53 0 1.035-.088 1.514-.263.48-.175.922-.409 1.329-.702v1.879a4.82 4.82 0 0 1-1.413.575 6.757 6.757 0 0 1-1.633.203 5.345 5.345 0 0 1-1.853-.313 4.377 4.377 0 0 1-1.473-.88 3.984 3.984 0 0 1-.964-1.363 4.4 4.4 0 0 1-.347-1.776c0-.654.115-1.253.347-1.794a4.18 4.18 0 0 1 .93-1.38c.39-.378.84-.67 1.355-.88a4.246 4.246 0 0 1 1.616-.313zm-11.83.186v4.773c0 .372.031.674.093.905.062.231.155.42.28.567.157.181.332.302.524.364s.384.093.575.093c.406 0 .798-.101 1.176-.305.378-.203.708-.462.99-.778v-5.62h2.048v8.327h-2.03v-.914l-.034-.017c-.35.328-.748.595-1.194.804-.445.209-.95.313-1.514.313-.463 0-.883-.076-1.26-.228a2.595 2.595 0 0 1-.957-.652 2.554 2.554 0 0 1-.567-1.016c-.118-.394-.177-.896-.177-1.505V25.57h2.047zm37.942-4.602v12.929h-2.03v-.474l-.035-.017a4.181 4.181 0 0 1-.981.482c-.372.13-.784.195-1.235.195a4.063 4.063 0 0 1-1.54-.296 3.832 3.832 0 0 1-2.14-2.166c-.21-.514-.314-1.092-.314-1.735s.11-1.241.33-1.794a4.31 4.31 0 0 1 .913-1.43c.39-.4.852-.714 1.388-.939a4.507 4.507 0 0 1 1.768-.339c.362 0 .689.034.983.101.293.068.563.159.812.271l.033-.017v-4.77h2.048zm56.084 4.416a5.58 5.58 0 0 1 1.506.195c.463.13.852.324 1.168.584.282.237.499.536.65.896.154.362.23.802.23 1.32v3.199c0 .226.045.412.135.559.09.146.237.22.44.22.147 0 .3-.04.457-.12v1.609a2.59 2.59 0 0 1-1.016.203 2.53 2.53 0 0 1-.964-.186 1.707 1.707 0 0 1-.745-.576h-.034c-.26.203-.598.387-1.015.55-.417.164-.903.246-1.455.246-.339 0-.675-.042-1.007-.127a2.71 2.71 0 0 1-.922-.432 2.238 2.238 0 0 1-.686-.804 2.406 2.406 0 0 1-.245-1.108c0-.462.098-.86.296-1.193.197-.333.454-.607.77-.82a3.006 3.006 0 0 1 1.083-.45 6.407 6.407 0 0 1 2.081-.076c.26.034.52.08.78.136v-.491c0-.496-.137-.874-.407-1.134-.305-.27-.773-.406-1.405-.406-.507 0-.97.074-1.388.22a5.68 5.68 0 0 0-1.116.525v-1.862a4.978 4.978 0 0 1 1.201-.482 6.11 6.11 0 0 1 1.608-.195zm-73.312 0c.508 0 1.038.054 1.591.161a5.568 5.568 0 0 1 1.49.5v1.86a6.05 6.05 0 0 0-1.6-.642 6.365 6.365 0 0 0-1.48-.203c-.44 0-.793.065-1.059.194a.659.659 0 0 0-.397.635.56.56 0 0 0 .186.448c.124.108.29.192.5.254.208.062.45.113.727.152a11.235 11.235 0 0 1 1.963.466c.333.113.62.262.864.448.242.187.43.415.567.686.134.27.203.604.203.998 0 .474-.096.883-.288 1.227a2.483 2.483 0 0 1-.787.855c-.333.226-.72.392-1.16.5-.44.106-.903.16-1.387.16a8.454 8.454 0 0 1-1.633-.17 6.16 6.16 0 0 1-1.566-.524v-1.912c.53.327 1.086.564 1.667.71a6.45 6.45 0 0 0 1.565.22c.474 0 .847-.07 1.118-.21.27-.142.406-.37.406-.687 0-.202-.062-.36-.186-.473a1.355 1.355 0 0 0-.508-.271 4.701 4.701 0 0 0-.745-.161c-.282-.04-.58-.093-.897-.16a6.817 6.817 0 0 1-1.083-.305 3.187 3.187 0 0 1-.846-.466 1.933 1.933 0 0 1-.55-.677c-.13-.265-.195-.583-.195-.956 0-.44.09-.823.271-1.15a2.49 2.49 0 0 1 .745-.83 3.38 3.38 0 0 1 1.117-.508c.428-.112.89-.169 1.387-.169zM155.107 23v2.573h2.352v1.743h-2.352v3.283c0 .237.013.457.042.66.028.203.082.383.16.541a.91.91 0 0 0 .33.372c.142.091.33.136.567.136.226 0 .449-.037.669-.11a3.81 3.81 0 0 0 .584-.245v1.743c-.193.113-.44.205-.745.279a4.05 4.05 0 0 1-.947.11c-.362 0-.726-.062-1.092-.186a2.157 2.157 0 0 1-.94-.627c-.214-.225-.38-.524-.499-.897-.118-.372-.177-.868-.177-1.489v-3.57h-1.456v-1.743h1.456v-2.218l2.048-.355zm-115.35-1.354c.666 0 1.309.037 1.93.11.62.074 1.19.252 1.71.533.54.294.986.7 1.336 1.218.35.52.525 1.168.525 1.947 0 .733-.158 1.362-.474 1.887a3.578 3.578 0 0 1-1.236 1.244 4.849 4.849 0 0 1-1.751.584 15.85 15.85 0 0 1-2.26.143h-1.05v4.587H36.34V21.645h3.418zm107.379 3.74c.45 0 .865.074 1.244.22.377.147.696.367.956.66.248.26.428.578.541.956.113.379.17.878.17 1.498v5.179h-2.049v-4.823c0-.372-.025-.669-.076-.89a1.151 1.151 0 0 0-.262-.532c-.26-.305-.626-.457-1.1-.457a2.61 2.61 0 0 0-1.201.304 3.32 3.32 0 0 0-.982.746v5.652h-2.048v-8.326h2.031v.896l.034.017a4.64 4.64 0 0 1 1.219-.786c.462-.21.97-.313 1.523-.313zm16.534.102c.203 0 .39.023.558.068v1.963a5.027 5.027 0 0 0-.313-.06 2.355 2.355 0 0 0-.364-.025c-.959 0-1.732.412-2.318 1.236v5.229h-2.048v-8.326h2.031v1.167l.033.017a3.1 3.1 0 0 1 1.058-.94c.412-.22.866-.33 1.363-.33zm-23.744.084v8.327h-2.048V25.57h2.048zm-79.758-.084c.202 0 .389.023.558.068v1.963a5.027 5.027 0 0 0-.313-.06 2.355 2.355 0 0 0-.365-.025c-.959 0-1.731.412-2.318 1.236v5.229h-2.048v-8.326h2.031v1.167l.034.017a3.1 3.1 0 0 1 1.057-.94c.412-.22.866-.33 1.364-.33zm-10.358 4.89c-.214 0-.42.02-.618.06-.197.04-.375.101-.533.186a1.085 1.085 0 0 0-.38.33.857.857 0 0 0-.145.508c0 .338.13.59.39.753.26.163.57.245.93.245.316 0 .619-.048.906-.144.288-.095.533-.217.736-.363v-1.405a3.916 3.916 0 0 0-.634-.127 5.422 5.422 0 0 0-.652-.042zm118.7 0c-.214 0-.42.02-.618.06-.197.04-.375.101-.534.186a1.089 1.089 0 0 0-.38.33.857.857 0 0 0-.144.508c0 .338.13.59.39.753.26.163.57.245.93.245.316 0 .618-.048.906-.144.287-.095.533-.217.736-.363v-1.405a3.916 3.916 0 0 0-.635-.127 5.422 5.422 0 0 0-.651-.042zM66.04 27.129a2.42 2.42 0 0 0-1.008.203 2.228 2.228 0 0 0-.76.56c-.21.236-.37.515-.483.837a3.06 3.06 0 0 0-.17 1.024c0 .36.054.7.161 1.015a2.34 2.34 0 0 0 1.227 1.396c.294.141.627.212.999.212.304 0 .614-.048.93-.144a2.62 2.62 0 0 0 .847-.432v-4.214a4.021 4.021 0 0 0-.796-.32 3.323 3.323 0 0 0-.947-.137zm42.426 0c-.395 0-.745.068-1.05.203a2.157 2.157 0 0 0-.77.567 2.61 2.61 0 0 0-.481.846c-.114.322-.17.669-.17 1.041 0 .362.054.697.16 1.007.108.31.26.581.458.812.197.232.443.415.736.55.293.136.626.204.998.204.35 0 .678-.056.982-.17.305-.112.581-.248.83-.406v-4.23a3.988 3.988 0 0 0-.787-.305 3.407 3.407 0 0 0-.906-.118zm9.85-.084a2.32 2.32 0 0 0-.703.11 1.962 1.962 0 0 0-.634.339 2.192 2.192 0 0 0-.5.566 2.508 2.508 0 0 0-.313.812h4.147a2.06 2.06 0 0 0-.246-.812 2.12 2.12 0 0 0-.465-.566 1.812 1.812 0 0 0-.601-.34 2.16 2.16 0 0 0-.686-.11zm-32.24 0c-.236 0-.47.037-.702.11a1.968 1.968 0 0 0-.634.339 2.192 2.192 0 0 0-.5.566 2.508 2.508 0 0 0-.312.812h4.146a2.06 2.06 0 0 0-.246-.812 2.109 2.109 0 0 0-.465-.566 1.812 1.812 0 0 0-.601-.34 2.157 2.157 0 0 0-.686-.11zm-46.403-3.487h-1.185v3.91h1.218c.632 0 1.14-.023 1.524-.068a2.622 2.622 0 0 0 1.015-.321 1.73 1.73 0 0 0 .635-.627c.152-.26.228-.575.228-.947 0-.395-.087-.725-.262-.99a1.86 1.86 0 0 0-.736-.635 2.679 2.679 0 0 0-1.05-.28 19.872 19.872 0 0 0-1.387-.042zm99.238-2.013c.35 0 .649.124.897.372s.372.547.372.897-.124.649-.372.897a1.24 1.24 0 0 1-.914.372 1.22 1.22 0 0 1-.897-.372 1.222 1.222 0 0 1-.372-.897c0-.35.124-.649.372-.897s.553-.372.914-.372zm-127.006-6.63c7.898 0 11.734 6.595 11.892 9.9h-6.79C16.33 23.015 13.974 21 11.562 21c-3.373 0-4.83 2.588-4.83 3.909 0 .658 0 2.412 1.897 3.796 1.914 1.396 4.39 2.4 6.77 3.405 2.95 1.24 5.55 2.14 6.932 4.229l-6.635 4.547c-.437-1.651-2.784-2.687-5.294-3.874-1.129-.535-2.293-1.086-3.483-1.741-3.898-2.147-5.888-3.772-6.66-7.206a10.438 10.438 0 0 1-.222-3.156 8.171 8.171 0 0 1 .713-2.724c1.624-3.514 5.408-7.27 11.155-7.27zM10.738 0a4.785 4.785 0 1 1 0 9.572V0z"/></svg>
