<svg xmlns="http://www.w3.org/2000/svg" viewBox="0 0 100 106"><path d="M25.458 39.004a1.563 1.563 0 0 0 .593-1.275c0-1.042-.503-1.653-3.755-1.653-2.48 0-3.216.629-3.216 1.797.003.38.07.756.198 1.113l6.18.018ZM26.05 7.761c0-.79-.269-1.437-3.88-1.437-3.719 0-4.096.593-4.096 1.51 0 .915.61 1.4 3.719 1.4 3.79 0 4.258-.449 4.258-1.473Z"/><path d="M54.473 0H0v7.51c10.528 1.958 11.013 2.659 11.013 12.073v66.852c0 9.486-.251 9.935-11.013 12.091V106h57.384v-7.474c-12.11-1.958-12.469-2.461-12.469-12.091V15.469c0-6.9 1.168-8.588 7.312-8.588 10.582 0 13.331 6.522 13.331 26.015 0 20.553-4.24 23.356-16.367 26.428v5.228a45.871 45.871 0 0 0 12.702 1.402C87.585 65.954 100 49.155 100 31.98 100.071 9.18 84.297 0 54.473 0ZM21.721 2.875A4.905 4.905 0 0 1 26.823 7.6v.18a4.527 4.527 0 0 1-4.132 4.904h-.593a4.924 4.924 0 1 1-.377-9.827v.018Zm4.348 23.895v-.216c-.198-.683-.27-.719-1.06-.719h-5.246c-.755 0-.827 0-1.222.593l-.413.557h-.413l-.432-4.33.162-.233h7.564c.808 0 .862 0 1.042-.719v-.323h.557v5.39h-.54Zm.557.359v5.39h-.557v-.324c-.198-.754-.252-.79-1.042-.79h-8.858c-.916 0-1.024 0-1.311.61l-.306.593h-.556l-.378-4.365.162-.234h11.157c.808 0 .88 0 1.078-.736v-.252l.61.108Zm-3.737-5.767a4.18 4.18 0 0 1-.827 0c-3.593 0-4.76-2.893-4.76-5.39 0-1.797.556-2.964 1.706-2.964a1.294 1.294 0 0 1 1.366 1.185v.162c0 1.042-.773 1.347-1.581 1.42-.809.071-.701.143-.701.7 0 .557.377 1.689 3.162 1.689 2.48-.198 3.898-.827 3.898-2.803a5.013 5.013 0 0 0-.61-2.372h.61a4.653 4.653 0 0 1 1.797 3.827 4.257 4.257 0 0 1-4.06 4.546Zm-7.995 1.078a1.796 1.796 0 0 1 1.94 1.652v.144a1.67 1.67 0 0 1-1.527 1.797H15.2a1.803 1.803 0 0 1-.305-3.593ZM13.78 38.95H18.541v-.09a4.06 4.06 0 0 1-1.258-2.802c0-1.635 1.186-3.378 4.276-3.378a4.743 4.743 0 0 1 5.264 4.169c.045.37.045.743 0 1.113a7.187 7.187 0 0 1-1.167 4.33H16.17c-.917 0-1.043 0-1.312.557l-.306.593h-.556l-.378-4.312.162-.18Zm0 8.984a1.15 1.15 0 0 1 1.222-1.06 1.042 1.042 0 0 1 1.06.88l.61 3.108-.359.144-2.066-2.084a1.527 1.527 0 0 1-.503-1.06l.036.072ZM26.662 65.9h-.611l-.126-.485c-.126-.593-.198-.755-1.383-.755H16.69c-1.185 0-1.257.18-1.383.755l-.126.485h-.575v-6.18c0-3.378 1.043-5.157 3.594-5.157a3.807 3.807 0 0 1 3.719 3.935 2.64 2.64 0 0 1 0 .377c-.004.49-.089.975-.252 1.437h-.593c-.09-1.42-.575-1.796-2.767-1.796-2.191 0-2.874.359-2.874 1.527.013.274.061.546.144.808h8.983c1.114 0 1.167-.108 1.347-.79l.162-.611h.575l.018 6.45Zm.215-14.984a2.102 2.102 0 0 1-1.904 2.264h-5.21c-.773 0-.863 0-1.24.593l-.36.556h-.43l-.432-4.275.144-.216h6.216c1.042 0 1.33-.36 1.33-1.024a4.094 4.094 0 0 0-.234-1.24h-4.994c-.755 0-.88 0-1.222.593l-.36.557h-.448l-.432-4.258.144-.233h6.917c.898 0 .988 0 1.222-.593l.18-.431h.485l.592 4.06-.161.215h-1.222v.09a5.39 5.39 0 0 1 1.383 3.342h.036Z"/></svg>
