<svg xmlns="http://www.w3.org/2000/svg" viewBox="0 0 200 165"><path d="M45.191 45.099V24.473h36.561c.464 4.06 3.036 8.083 7.518 11.726 3.152 2.55 8.853 5.794 10.799 5.794 1.947 0 7.648-3.245 10.754-5.84l.046-.046c4.417-3.625 6.953-7.625 7.416-11.634h36.097v20.626h7.555l.047-28.135h-43.616V0H81.659v16.964H37.627l.046 28.135h7.518ZM82.735 1.205h34.577l.046 22.109c0 4.171-2.503 8.39-7.184 12.236-3.337 2.689-8.714 5.562-10.105 5.562v.047c-1.39 0-6.767-2.828-10.104-5.562-4.728-3.847-7.23-8.065-7.23-12.237V1.205ZM131.309 138.355c-11.541 9.409-27.578 17.334-31.518 18.169-3.94-.835-19.93-8.807-31.517-18.169-12.376-10.058-19.977-20.719-22.295-31.24h-7.648c2.272 12.746 10.846 25.399 25.215 37.08 12.004 9.733 31.193 19.884 36.245 19.884 5.053 0 24.241-10.151 36.246-19.884 14.369-11.634 22.943-24.334 25.214-37.08h-7.694c-2.271 10.521-9.872 21.182-22.248 31.24ZM138.772 101.321s-1.391-.695-3.198-4.496c-1.669-3.569-7.463-15.898-7.463-15.898 3.986-2.086 7.37-6.257 7.37-13.534V66.14c0-11.355-8.204-15.202-14.183-15.202h-15.991a9.575 9.575 0 0 1 1.066 4.495v41.391a9.576 9.576 0 0 1-1.066 4.496h12.237s-1.067-1.622-1.067-4.496v-14.23h1.53s5.423 11.588 6.721 14.323c1.298 2.734.788 4.403.788 4.403h13.256Zm-19.096-26.698h-3.199V58.957h3.199c3.569 0 5.701 1.9 5.701 7.833s-2.123 7.833-5.701 7.833ZM20.07 70.869c-4.914-4.125-7.926-6.952-7.973-10.707-.046-3.893 3.43-6.164 6.906-6.164 5.887 0 7.834 4.496 7.834 4.496l2.503-9.78s-3.894-3.847-11.356-3.847c-8.946 0-16.084 6.906-16.084 17.15 0 6.58 3.43 10.891 9.456 16.083 6.396 5.469 8.574 7.925 8.574 12.421a6.99 6.99 0 0 1-7.137 7c-7.416 0-10.058-6.35-10.058-6.35L0 101.83s4.542 5.608 13.673 5.608c8.76 0 17.567-6.767 17.567-18.262.046-7.184-4.264-12.514-11.17-18.308ZM43.995 96.964c.557-2.503 1.484-6.72 1.484-6.72h10.614s.927 4.217 1.483 6.72c.742 3.569-.417 4.357-.417 4.357h12.468s-1.159-1.02-2.04-4.264c-1.9-7.323-11.865-46.072-11.865-46.072H44.32s1.159.788.37 4.45c-2.688 10.428-9.223 35.828-10.752 41.622-.881 3.244-2.04 4.264-2.04 4.264h12.468s-1.168-.788-.37-4.357Zm6.814-31.518 3.8 17.15h-7.6l3.8-17.15ZM98.957 74.623h-11.17a10.15 10.15 0 0 1 1.02 4.496v14.23c-2.967 0-9.734-1.53-9.734-17.15 0-10.567 3.847-17.195 9.316-17.195 4.913 0 7.185 4.542 7.185 4.542l2.502-9.78s-3.476-3.708-10.753-3.708c-11.077 0-18.354 10.29-18.354 26.141 0 15.852 7.648 26.142 17.984 26.142 8.25 0 12.004-3.198 12.004-3.198v-24.52ZM188.83 70.869c-4.913-4.125-7.926-6.952-7.973-10.707-.046-3.847 3.43-6.164 6.907-6.164 5.886 0 7.833 4.496 7.833 4.496l2.503-9.78s-3.894-3.847-11.356-3.847c-8.946 0-16.084 6.906-16.084 17.15 0 6.58 3.43 10.891 9.456 16.083 6.396 5.469 8.575 7.925 8.575 12.421a6.998 6.998 0 0 1-4.416 6.51 6.99 6.99 0 0 1-2.722.49c-7.416 0-10.058-6.35-10.058-6.35l-2.735 10.752s4.542 5.609 13.673 5.609c8.761 0 17.567-6.767 17.567-18.262.046-7.277-4.264-12.607-11.17-18.401ZM159.351 59.096v-.092a9.779 9.779 0 0 1 4.728 1.066l2.317-9.039h-24.982a9.353 9.353 0 0 1 1.066 4.496v41.39a9.354 9.354 0 0 1-1.066 4.497h22.665l2.317-9.039a11.082 11.082 0 0 1-4.496 1.067h-9.316V79.675h3.384c1.558.027 3.091.39 4.496 1.066v-9.78a10.547 10.547 0 0 1-4.496 1.066h-3.384V59.096h6.767Z"/><path d="M100.079 37.859c2.901-.807 14.164-7.055 14.164-14.55V4.352H85.854v19.004c-.014 7.467 11.379 13.72 14.225 14.503Zm4.361-20.95h5.099v3.244a2.445 2.445 0 0 1-1.066 1.808 4.554 4.554 0 0 1-1.483.834 3.788 3.788 0 0 1-1.484-.834 2.448 2.448 0 0 1-1.066-1.808v-3.244Zm-1.807 10.66a2.445 2.445 0 0 1-1.066 1.808 4.549 4.549 0 0 1-1.484.834 3.788 3.788 0 0 1-1.483-.834 2.447 2.447 0 0 1-1.066-1.808v-3.244h5.099v3.244Zm-5.145-18.03h5.098v3.244a2.445 2.445 0 0 1-1.066 1.808c-.437.369-.94.652-1.483.834a4.541 4.541 0 0 1-1.483-.834 2.448 2.448 0 0 1-1.066-1.808V9.54Zm0 7.37h5.098v3.244a2.444 2.444 0 0 1-1.066 1.808c-.437.369-.94.652-1.483.834a4.543 4.543 0 0 1-1.483-.834 2.447 2.447 0 0 1-1.066-1.808v-3.244Zm-6.906 0h5.098v3.244a2.446 2.446 0 0 1-1.066 1.808c-.437.369-.94.652-1.483.834a4.543 4.543 0 0 1-1.483-.834 2.447 2.447 0 0 1-1.066-1.808v-3.244ZM85.377 115.782h-1.39v5.887h1.39c2.317.046 3.615-1.159 3.615-2.92 0-1.762-1.298-2.967-3.615-2.967Zm.231 4.774h-.324v-3.569h.324c1.16 0 1.947.51 1.947 1.762 0 1.251-.742 1.807-1.947 1.807ZM90.568 131.912v-5.887H89.27l-1.715.325.185 1.02 1.53-.278v4.82h1.298ZM95.296 120.556h-2.828v-1.344h2.642v-1.159h-2.642v-1.158h2.828v-1.159h-4.172v5.886h4.172v-1.066ZM94.693 130.939a3.66 3.66 0 0 1-1.02-.139l-.185 1.066c.435.132.889.195 1.344.185 1.854 0 3.06-1.391 3.06-3.43.046-1.622-.789-2.688-2.411-2.688-1.298 0-2.225.88-2.225 1.946a1.78 1.78 0 0 0 1.9 1.808 1.75 1.75 0 0 0 1.391-.51c-.14 1.066-.556 1.762-1.854 1.762Zm.88-2.272c-.602 0-1.02-.278-1.02-.788a.93.93 0 0 1 1.02-.834c.51 0 .974.278.974.788s-.37.834-.973.834ZM102.433 120.046c0-1.112-.602-1.297-1.9-1.761-1.205-.463-1.576-.556-1.576-.927s.278-.463 1.159-.463c.655.002 1.309.08 1.947.231l.185-1.066a8.236 8.236 0 0 0-2.179-.324c-1.715 0-2.456.556-2.456 1.622s.695 1.391 2.04 1.854c1.112.417 1.436.464 1.436.834 0 .464-.463.603-1.205.603a8.005 8.005 0 0 1-2.225-.371l-.278 1.02c.797.32 1.645.492 2.503.51 1.483 0 2.549-.649 2.549-1.762ZM110.035 132.051c1.622 0 2.456-1.391 2.456-3.059 0-1.669-.834-3.059-2.456-3.059-1.622 0-2.457 1.39-2.457 3.059 0 1.668.844 3.059 2.457 3.059Zm0-5.006c.88 0 1.159.974 1.159 1.901s-.279 1.946-1.159 1.946c-.881 0-1.205-.973-1.205-1.946 0-.974.278-1.901 1.205-1.901ZM109.757 118.749c0-1.715-1.298-2.967-3.616-2.967h-1.39v5.887h1.39c2.318.046 3.616-1.159 3.616-2.92Zm-3.708-1.762h.324c1.159 0 1.947.51 1.947 1.762 0 1.251-.742 1.807-1.947 1.807h-.324v-3.569ZM111.889 115.782v5.887h4.171v-1.159h-2.827v-1.344h2.642v-1.159h-2.642v-1.159h2.827v-1.066h-4.171ZM104.473 131.912v-1.298h.834v-1.066h-.834v-3.523h-1.437l-2.874 3.477v1.112h3.059v1.298h1.252Zm-1.298-2.318h-1.808l1.808-2.178v2.178Z"/></svg>
