<svg xmlns="http://www.w3.org/2000/svg" viewBox="0 0 200 83"><path d="m59.817 39.153-2.59 1.432-.993-1.422.642-.578c3.84-3.273 4.42-11.636-.259-20.017-4.766-8.541-11.99-11.696-17.914-8.79-.537.263-2.418 1.075-3.439 2.764L31.71 18.41l20.16 36.895 1.725 3.159-9.18 20.777h-5.46L4.726 17.99 0 11.301v-2.09h35.976l9.533-5.286C57.215-2.55 70.418-1.078 75.942 8.82c5.39 9.658-1.052 21.995-16.125 30.332zm29.965-.131-6.408 17.651h-3.775l-6.333-17.651h4.382l3.85 12.457 3.826-12.457h4.458zm8.867 5.497h3.875v12.155H98.65v-1.716a3.167 3.167 0 0 1-.609.795 3.915 3.915 0 0 1-.873.63c-.33.177-.689.32-1.077.428a4.24 4.24 0 0 1-1.166.165 5.891 5.891 0 0 1-2.42-.491 5.742 5.742 0 0 1-1.886-1.337 5.914 5.914 0 0 1-1.216-2.017 7.306 7.306 0 0 1-.43-2.535 7.3 7.3 0 0 1 .43-2.534 5.931 5.931 0 0 1 1.216-2.018 5.74 5.74 0 0 1 1.887-1.336 5.877 5.877 0 0 1 2.42-.493c.388 0 .776.056 1.165.165a4.86 4.86 0 0 1 1.077.442c.329.185.62.403.873.655.254.252.455.514.609.782v-1.74zm-.216 7.275c.142-.378.216-.778.216-1.198a3.235 3.235 0 0 0-.812-2.168 2.745 2.745 0 0 0-2.102-.933 2.752 2.752 0 0 0-2.102.932 3.214 3.214 0 0 0-.595.984c-.145.37-.216.764-.216 1.185 0 .42.071.82.216 1.198a2.894 2.894 0 0 0 1.507 1.651c.354.17.751.252 1.19.252.44 0 .836-.083 1.19-.251.355-.168.66-.39.912-.668a3.06 3.06 0 0 0 .596-.984zm7.383 4.88V44.52h3.876v1.763a3.524 3.524 0 0 1 1.533-1.525c.685-.361 1.508-.543 2.47-.543.793 0 1.477.124 2.052.367.573.244 1.03.585 1.368 1.022.389.47.645 1.013.772 1.626s.19 1.357.19 2.232v7.212h-3.875v-6.23c0-.873-.157-1.584-.469-2.13-.313-.547-.874-.82-1.684-.82-.795 0-1.385.278-1.774.832-.39.555-.583 1.304-.583 2.244v6.104h-3.876zm24.319-12.155h3.876v12.079c0 1.11-.161 2.03-.481 2.76a4.58 4.58 0 0 1-1.445 1.83c-.574.436-1.258.765-2.052.983-.794.217-1.757.328-2.887.328-1.15 0-2.107-.127-2.875-.38-.768-.25-1.406-.595-1.913-1.032a5.053 5.053 0 0 1-1.267-1.577 4.674 4.674 0 0 1-.507-1.904h3.876c.05.522.3.992.748 1.413.447.42 1.092.63 1.938.63.912 0 1.637-.22 2.178-.655.54-.438.81-1.135.81-2.094v-2.043c-.337.556-.844 1.01-1.52 1.363a4.687 4.687 0 0 1-2.203.529c-.878 0-1.684-.151-2.42-.454a5.468 5.468 0 0 1-1.887-1.274 5.902 5.902 0 0 1-1.228-1.941c-.295-.748-.443-1.576-.443-2.484 0-.907.14-1.752.418-2.534a5.775 5.775 0 0 1 1.203-2.018 5.758 5.758 0 0 1 1.875-1.336c.725-.328 1.536-.493 2.432-.493.776 0 1.515.182 2.215.543.701.362 1.221.862 1.559 1.501v-1.74zm-.216 7.275a3.36 3.36 0 0 0 .216-1.198 3.263 3.263 0 0 0-.811-2.169 2.771 2.771 0 0 0-.924-.68 2.84 2.84 0 0 0-1.204-.253 2.751 2.751 0 0 0-2.102.933 3.059 3.059 0 0 0-.583.984c-.136.37-.202.764-.202 1.185 0 .42.066.82.202 1.198.135.377.33.706.583.984.254.277.558.5.912.668.355.168.752.251 1.19.251a2.837 2.837 0 0 0 2.128-.919 3.04 3.04 0 0 0 .595-.984zm15.516-7.275h3.876v12.154h-3.876v-1.74c-.338.64-.848 1.14-1.533 1.501-.684.36-1.506.542-2.47.542-.794 0-1.477-.122-2.05-.366-.576-.243-1.031-.584-1.37-1.021a3.57 3.57 0 0 1-.759-1.626c-.118-.613-.178-1.358-.178-2.232v-7.212h3.85v6.228c0 .875.157 1.586.469 2.132.312.546.875.819 1.685.819s1.405-.277 1.786-.832c.38-.555.57-1.304.57-2.245V44.52zm16.086 0h3.875v12.155h-3.875v-1.716a3.167 3.167 0 0 1-.609.795 3.915 3.915 0 0 1-.873.63c-.33.177-.689.32-1.077.428a4.24 4.24 0 0 1-1.166.165 5.891 5.891 0 0 1-2.42-.491 5.742 5.742 0 0 1-1.886-1.337 5.914 5.914 0 0 1-1.216-2.017 7.306 7.306 0 0 1-.43-2.535 7.3 7.3 0 0 1 .43-2.534 5.931 5.931 0 0 1 1.216-2.018 5.74 5.74 0 0 1 1.887-1.336 5.877 5.877 0 0 1 2.42-.493c.388 0 .776.056 1.165.165a4.86 4.86 0 0 1 1.077.442c.329.185.62.403.873.655.254.252.455.514.609.782v-1.74zm-.216 7.275c.142-.378.216-.778.216-1.198a3.235 3.235 0 0 0-.812-2.168 2.745 2.745 0 0 0-2.102-.933 2.752 2.752 0 0 0-2.102.932 3.214 3.214 0 0 0-.595.984c-.145.37-.216.764-.216 1.185 0 .42.071.82.216 1.198a2.894 2.894 0 0 0 1.507 1.651c.354.17.75.252 1.19.252.44 0 .836-.083 1.19-.251.355-.168.66-.39.912-.668a3.06 3.06 0 0 0 .596-.984zm16.149-7.275v3.505a6.341 6.341 0 0 0-.685-.138 5.03 5.03 0 0 0-.684-.038c-1.063 0-1.916.311-2.559.933-.641.622-.962 1.673-.962 3.151v4.741h-3.875V44.52h3.875v1.967c.287-.572.764-1.076 1.432-1.514.667-.436 1.431-.655 2.293-.655.455 0 .843.067 1.165.202zm10.386-5.498h3.875v17.653h-3.875v-1.716a3.145 3.145 0 0 1-.609.795 3.915 3.915 0 0 1-.874.63c-.329.177-.688.32-1.076.428-.389.11-.776.165-1.165.165a5.9 5.9 0 0 1-2.42-.491 5.746 5.746 0 0 1-1.887-1.337 5.914 5.914 0 0 1-1.216-2.017 7.306 7.306 0 0 1-.43-2.535 7.3 7.3 0 0 1 .43-2.534 5.931 5.931 0 0 1 1.216-2.018 5.744 5.744 0 0 1 1.888-1.336 5.87 5.87 0 0 1 2.42-.493c.388 0 .775.056 1.164.165.388.109.747.256 1.076.442.33.185.621.403.874.655.254.252.456.514.609.782v-7.238zm-.216 12.773a3.36 3.36 0 0 0 .216-1.198 3.263 3.263 0 0 0-.811-2.169 2.742 2.742 0 0 0-2.103-.933 2.752 2.752 0 0 0-2.102.933 3.214 3.214 0 0 0-.595.984c-.145.37-.216.764-.216 1.185 0 .42.071.82.216 1.198a2.894 2.894 0 0 0 1.507 1.651c.354.17.75.252 1.19.252.44 0 .837-.083 1.19-.251a2.89 2.89 0 0 0 1.508-1.652zM114.176 70.74c.312.774.468 1.597.468 2.472a6.54 6.54 0 0 1-.468 2.471 6.009 6.009 0 0 1-1.343 2.03 6.463 6.463 0 0 1-2.128 1.387c-.837.345-1.786.517-2.85.517-1.048 0-1.988-.172-2.824-.517a6.478 6.478 0 0 1-2.129-1.387 6.022 6.022 0 0 1-1.342-2.03 6.539 6.539 0 0 1-.469-2.471c0-.875.156-1.698.469-2.472.313-.772.76-1.45 1.342-2.03.584-.58 1.293-1.042 2.129-1.387.836-.344 1.776-.517 2.824-.517 1.064 0 2.013.173 2.85.517.836.345 1.545.807 2.128 1.387a6.027 6.027 0 0 1 1.343 2.03zm-3.598 3.682c.143-.37.216-.772.216-1.21 0-.42-.073-.82-.216-1.198a3.052 3.052 0 0 0-.595-.984 2.842 2.842 0 0 0-2.128-.92c-.44 0-.835.084-1.19.252a2.926 2.926 0 0 0-.913.668 2.882 2.882 0 0 0-.582.984 3.505 3.505 0 0 0-.203 1.198c0 .438.067.84.203 1.21.135.37.33.698.582.984.254.285.558.508.912.669.356.16.752.24 1.19.24.44 0 .84-.08 1.205-.24.363-.16.671-.384.924-.669.253-.286.452-.613.595-.984zm76.009-4.187c.294.674.443 1.38.443 2.12 0 .252-.004.52-.013.806a6.728 6.728 0 0 1-.113.984h-8.792c.018.37.073.72.166 1.046.092.328.244.615.455.857.212.245.486.438.824.58.337.144.76.215 1.267.215.675 0 1.186-.135 1.533-.403.345-.269.586-.597.72-.983h3.8a4.209 4.209 0 0 1-.594 1.613 4.726 4.726 0 0 1-1.242 1.324 6.139 6.139 0 0 1-1.824.895c-.7.22-1.49.328-2.368.328-1.065 0-2.006-.155-2.825-.466-.82-.31-1.507-.753-2.064-1.324a5.658 5.658 0 0 1-1.267-2.03c-.287-.782-.43-1.644-.43-2.585 0-.89.14-1.723.418-2.496a5.755 5.755 0 0 1 1.241-2.03c.548-.581 1.224-1.038 2.026-1.375.802-.336 1.736-.505 2.8-.505.962 0 1.827.15 2.595.455.77.303 1.428.706 1.977 1.21.548.504.97 1.093 1.267 1.764zm-8.475 1.691h5.117c0-.79-.232-1.412-.696-1.867-.464-.454-1.068-.681-1.81-.681-.76 0-1.385.22-1.875.656-.49.437-.736 1.067-.736 1.892zm-81.098-4.338c.666-.437 1.43-.655 2.292-.655.456 0 .844.067 1.166.202v3.505a7.035 7.035 0 0 0-.685-.14 5.342 5.342 0 0 0-.684-.038c-1.063 0-1.916.312-2.559.934-.642.622-.962 1.673-.962 3.153v4.74h-3.876V67.136h3.876V69.1c.287-.57.764-1.076 1.432-1.513zm-7.917-2.017a6.65 6.65 0 0 1 .456 2.446c0 .858-.153 1.673-.456 2.445a6.026 6.026 0 0 1-1.305 2.031 6.315 6.315 0 0 1-2.04 1.387c-.792.345-1.68.516-2.66.516h-3.317v4.893h-4.103V61.637h7.42c.98 0 1.868.173 2.66.517a6.33 6.33 0 0 1 2.04 1.386c.566.582 1 1.257 1.305 2.03zm-3.876 3.606a3.35 3.35 0 0 0 .203-1.16c0-.403-.068-.79-.203-1.16a3.042 3.042 0 0 0-.57-.972 2.76 2.76 0 0 0-.899-.667 2.696 2.696 0 0 0-1.165-.253h-2.812v6.104h2.812c.421 0 .81-.085 1.165-.253.354-.168.655-.391.9-.668.244-.278.434-.6.57-.97zm114.462 5.069c.212.386.317.874.317 1.462 0 .724-.143 1.332-.43 1.828a3.429 3.429 0 0 1-1.191 1.212 5.354 5.354 0 0 1-1.76.667 10.81 10.81 0 0 1-2.141.202c-1.74 0-3.113-.379-4.117-1.135-1.005-.755-1.507-1.84-1.507-3.252h3.8c0 .638.18 1.096.544 1.374.363.276.831.416 1.407.416.472 0 .856-.088 1.152-.265.295-.176.443-.466.443-.87 0-.235-.063-.424-.19-.567-.126-.144-.321-.277-.582-.404a7.195 7.195 0 0 0-1.014-.378c-.414-.126-.908-.282-1.482-.466a19.38 19.38 0 0 1-1.444-.493 5.293 5.293 0 0 1-1.203-.642 2.741 2.741 0 0 1-.823-.96c-.203-.385-.305-.873-.305-1.461 0-1.262.486-2.195 1.457-2.8.972-.605 2.284-.907 3.94-.907.877 0 1.65.104 2.317.315.668.21 1.216.5 1.647.87.43.37.755.807.975 1.311.22.504.33 1.042.33 1.614h-3.826c0-.504-.131-.895-.393-1.174-.261-.276-.663-.415-1.203-.415-.388 0-.727.089-1.012.265-.288.177-.431.45-.431.82 0 .219.067.399.202.541.135.144.334.274.595.391.263.118.586.236.976.353.387.118.836.261 1.342.43.54.15 1.047.315 1.52.492.472.176.887.395 1.242.655.354.26.636.584.848.97zm-47.166-6.658c.667-.437 1.431-.655 2.293-.655.456 0 .844.067 1.165.202v3.505a6.565 6.565 0 0 0-.685-.14 5.326 5.326 0 0 0-.682-.038c-1.065 0-1.917.312-2.56.934-.642.622-.962 1.673-.962 3.153v4.74h-3.876V67.136h3.876V69.1c.286-.57.764-1.076 1.43-1.513zm-22.508 3.09c.286.781.43 1.626.43 2.534a7.32 7.32 0 0 1-.43 2.534 5.963 5.963 0 0 1-1.216 2.018 5.746 5.746 0 0 1-1.888 1.337 5.887 5.887 0 0 1-2.418.491c-.407 0-.799-.054-1.179-.165a5.178 5.178 0 0 1-1.077-.44 4.061 4.061 0 0 1-.886-.644 3.162 3.162 0 0 1-.609-.794V83h-3.876V67.134h3.876v1.74c.152-.268.355-.53.61-.781a3.84 3.84 0 0 1 .885-.656 5.18 5.18 0 0 1 1.077-.441 4.23 4.23 0 0 1 1.179-.165c.877 0 1.684.165 2.418.492a5.744 5.744 0 0 1 1.888 1.336 5.976 5.976 0 0 1 1.216 2.019zm-3.661 3.731c.143-.378.215-.777.215-1.197 0-.42-.072-.82-.215-1.198a2.9 2.9 0 0 0-1.508-1.651 2.693 2.693 0 0 0-1.165-.254 2.835 2.835 0 0 0-2.127.922 3.015 3.015 0 0 0-.596.983 3.343 3.343 0 0 0-.216 1.198c0 .42.072.82.216 1.197.143.379.342.706.596.984a2.834 2.834 0 0 0 2.127.92c.421 0 .812-.084 1.165-.251.355-.169.66-.392.912-.669a3.03 3.03 0 0 0 .596-.984zm41.531 4.88V67.136h3.876V79.29h-3.876zm-3.47-2.887h.734c.254 0 .472-.021.658-.063v2.95a15.409 15.409 0 0 1-2.583.202c-.456 0-.938-.034-1.444-.101a3.393 3.393 0 0 1-1.406-.516c-.43-.278-.785-.707-1.064-1.286-.279-.582-.418-1.375-.418-2.384V70.01h-1.925v-2.874h1.925V63.53h3.851v3.606h2.787v2.874h-2.787v4.33c0 .451.042.813.126 1.081.085.27.203.474.355.616.152.144.33.24.532.29.202.051.422.076.659.076zm-19.873-6.167c.294.674.443 1.38.443 2.12 0 .252-.004.52-.012.806a6.728 6.728 0 0 1-.114.984h-8.79c.017.37.071.72.164 1.046.092.328.245.615.455.857.212.245.487.438.824.58.338.144.76.215 1.267.215.675 0 1.187-.135 1.533-.403.345-.269.587-.597.721-.983h3.8a4.209 4.209 0 0 1-.595 1.613 4.726 4.726 0 0 1-1.242 1.324 6.144 6.144 0 0 1-1.823.895c-.701.22-1.49.328-2.369.328-1.064 0-2.006-.155-2.825-.466a5.623 5.623 0 0 1-2.064-1.324 5.67 5.67 0 0 1-1.267-2.03c-.287-.782-.43-1.644-.43-2.585 0-.89.14-1.723.418-2.496a5.755 5.755 0 0 1 1.241-2.03c.549-.581 1.225-1.038 2.026-1.375.802-.336 1.736-.505 2.8-.505.962 0 1.828.15 2.596.455a6.303 6.303 0 0 1 1.976 1.21c.549.504.97 1.093 1.267 1.764zm-8.473 1.691h5.116c0-.79-.232-1.412-.696-1.867-.465-.454-1.069-.681-1.812-.681-.76 0-1.384.22-1.874.656-.49.437-.734 1.067-.734 1.892zM171.59 61.36c.227.218.405.48.531.782.127.302.19.622.19.958 0 .337-.063.652-.19.946a2.466 2.466 0 0 1-1.33 1.312 2.57 2.57 0 0 1-.987.189c-.355 0-.68-.064-.977-.19a2.493 2.493 0 0 1-.784-.53 2.469 2.469 0 0 1-.532-.78 2.361 2.361 0 0 1-.19-.947c0-.688.236-1.269.709-1.74.473-.47 1.065-.706 1.774-.706a2.545 2.545 0 0 1 1.786.706z"/></svg>
