<svg xmlns="http://www.w3.org/2000/svg" viewBox="0 0 12 12"><path fill-rule="evenodd" d="M4.334.625a2.042 2.042 0 0 0-1.18 3.708A2.039 2.039 0 0 0 2.292 6c0 .688.34 1.297.863 1.667a2.041 2.041 0 1 0 3.22 1.666V7.581a2.042 2.042 0 1 0 2.472-3.248A2.041 2.041 0 0 0 7.667.624H4.335l-.001.001Zm1.291 6.667H4.334a1.292 1.292 0 0 1 0-2.583h1.291v2.583ZM4.334 3.959h1.291V1.374H4.334a1.292 1.292 0 1 0 0 2.583Zm4.625-1.292a1.292 1.292 0 0 1-1.29 1.292H6.375V1.374h1.292a1.291 1.291 0 0 1 1.292 1.292ZM6.375 5.998a1.291 1.291 0 0 1 1.29-1.29h.003a1.291 1.291 0 1 1-1.293 1.293v-.003ZM4.334 8.04a1.292 1.292 0 1 0 1.291 1.293V8.04H4.334Z"/></svg>
