<svg xmlns="http://www.w3.org/2000/svg" viewBox="0 0 190 17"><path d="M5.7 9.813H2.498v6.812H0V.352h6.83c3.8 0 5.51 1.814 5.51 4.635.01 2.537-1.434 4.209-4.037 4.694l5.063 6.887v.057h-3.002L5.7 9.813ZM2.498 2.574V7.59h4.066c2.09 0 3.306-.893 3.306-2.545 0-1.653-.816-2.47-3.172-2.47h-4.2ZM23.218 13.395a4.313 4.313 0 0 1-4.474 3.496c-2.47 0-4.066-1.187-4.066-3.572 0-2.233 1.405-3.886 4.474-3.886h4.095V8.76c0-1.976-.76-3.069-2.765-3.069-1.814 0-2.85.846-3.173 2.936l-2.252-.332c.409-2.955 2.138-4.57 5.472-4.57 3.535 0 5.055 1.795 5.055 5.044v7.895h-2.366v-3.268Zm0-1.492v-.579h-3.8c-1.596 0-2.46.598-2.46 1.71 0 1.111.617 1.9 2.46 1.9 2.366-.019 3.8-1.292 3.8-3.03ZM36.965 13.224a4.228 4.228 0 0 1-4.418 3.743c-3.277 0-4.417-2.166-4.417-4.883V3.962h2.355v7.505c0 1.738.76 3.315 3.04 3.315 2.28 0 3.468-1.197 3.468-3.316V3.963h2.337v12.663h-2.365v-3.401ZM44.45 16.625h-2.365V0h2.365v16.625ZM59.575 9.813H56.4v6.812h-2.498V.352h6.83c3.8 0 5.51 1.814 5.51 4.635 0 2.575-1.434 4.209-4.037 4.694l5.063 6.887v.057h-3.002l-4.692-6.812ZM56.4 2.574V7.59h4.066c2.09 0 3.306-.893 3.306-2.545 0-1.653-.817-2.47-3.173-2.47h-4.199ZM77.121 13.395a4.313 4.313 0 0 1-4.474 3.496c-2.47 0-4.067-1.187-4.067-3.572 0-2.233 1.407-3.886 4.475-3.886h4.094V8.76c0-1.976-.76-3.069-2.764-3.069-1.815 0-2.85.846-3.173 2.936l-2.252-.332c.39-2.955 2.138-4.57 5.473-4.57 3.533 0 5.053 1.795 5.053 5.044v7.895h-2.365v-3.268Zm0-1.492v-.579h-3.8c-1.596 0-2.46.598-2.46 1.71 0 1.111.617 1.9 2.46 1.9 2.365-.019 3.8-1.292 3.8-3.03ZM84.493 16.625h-2.356V3.962h2.356v3.41a4.227 4.227 0 0 1 4.456-3.743c2.897 0 4.113 1.682 4.36 3.961.466-2.707 1.957-3.961 4.418-3.961 3.344 0 4.474 2.175 4.474 4.883v8.113h-2.356V9.111c0-1.739-.731-3.335-3.04-3.335s-3.468 1.216-3.468 3.335v7.514H91V9.111c0-1.739-.731-3.335-3.03-3.335s-3.477 1.216-3.477 3.335v7.514ZM104.13 10.25c0-4.151 2.603-6.65 6.45-6.65 3.848 0 6.403 2.47 6.403 6.65s-2.413 6.698-6.403 6.698c-3.99 0-6.45-2.575-6.45-6.697Zm2.355 0c0 2.736 1.435 4.56 4.067 4.56 2.631 0 4.066-1.824 4.066-4.56 0-2.736-1.511-4.417-4.066-4.417-2.556 0-4.067 1.691-4.067 4.389v.029ZM117.885 12.502l2.224-.437c.437 1.739 1.301 3.011 3.686 3.011 1.795 0 2.66-.731 2.688-1.9.029-1.168-.76-1.595-3.467-2.061-3.344-.617-4.56-1.815-4.56-3.8 0-2.204 1.624-3.696 4.797-3.696 3.173 0 4.665 1.492 5.235 3.962l-2.252.542c-.456-1.9-1.301-2.651-2.983-2.651-1.681 0-2.441.646-2.441 1.7 0 1.055.655 1.71 3.258 2.147 3.468.599 4.75 1.843 4.75 3.8 0 2.3-1.625 3.8-5.045 3.8-3.933.029-5.348-1.795-5.89-4.417ZM139.973 10.469v6.156h-2.489V.352h6.213c3.629 0 5.586 1.681 5.586 5.044 0 2.955-2.042 5.073-5.538 5.073h-3.772Zm0-7.894v5.7h3.534c2.109 0 3.221-.894 3.221-2.85 0-1.958-.95-2.85-3.278-2.85h-3.477ZM151.307 2.005V0h2.688v2.005h-2.688Zm.161 14.62V3.962h2.337v12.663h-2.337ZM159.201 16.625h-2.356V3.962h2.356v3.41a4.23 4.23 0 0 1 4.417-3.743c3.287 0 4.418 2.175 4.418 4.883v8.113h-2.356V9.111c0-1.739-.732-3.335-3.04-3.335-2.166 0-3.467 1.216-3.467 3.335l.028 7.514ZM171.56 16.625V5.995h-1.9V3.96h1.9V.457h2.366v3.506h2.631v2.033h-2.631v10.63h-2.366ZM177.146 10.25c0-4.151 2.604-6.65 6.451-6.65 3.848 0 6.403 2.47 6.403 6.65s-2.413 6.698-6.403 6.698c-3.99 0-6.451-2.575-6.451-6.697Zm2.357 0c0 2.736 1.444 4.56 4.075 4.56 2.632 0 4.066-1.824 4.066-4.56 0-2.736-1.52-4.417-4.066-4.417s-4.028 1.691-4.028 4.389l-.047.029Z"/></svg>