<svg xmlns="http://www.w3.org/2000/svg" viewBox="0 0 24 24"><path d="M16.418 4.164a.75.75 0 0 0-1.341 0L12.584 9.15a.882.882 0 0 0-.014.028l-1.243 2.485a.75.75 0 1 0 1.342.67l1.042-2.084h4.072l1.043 2.085a.75.75 0 1 0 1.342-.671l-1.243-2.485a.599.599 0 0 0-.014-.028l-2.493-4.986Zm-.67 2.013 1.285 2.572h-2.572l1.286-2.572Z"/><path d="M11.998 1.25a3.25 3.25 0 0 0-3.25 3.25v7.498a3.25 3.25 0 0 0 3.25 3.25h7.499a3.25 3.25 0 0 0 3.25-3.25V4.5a3.25 3.25 0 0 0-3.25-3.25h-7.499Zm-1.237 2.012a1.75 1.75 0 0 1 1.237-.512h7.499a1.75 1.75 0 0 1 1.75 1.75v7.498a1.75 1.75 0 0 1-1.75 1.75h-7.499a1.75 1.75 0 0 1-1.75-1.75V4.5c0-.464.185-.91.513-1.238Z"/><path d="M4.5 8.752a3.25 3.25 0 0 0-3.25 3.25V19.5a3.25 3.25 0 0 0 3.25 3.25l7.503-.012a3.25 3.25 0 0 0 3.245-3.25v-2.49a.75.75 0 0 0-1.5 0v2.49A1.75 1.75 0 0 1 12 21.238l-7.499.012H4.5a1.75 1.75 0 0 1-1.75-1.75v-7.498a1.75 1.75 0 0 1 1.75-1.75H7a.75.75 0 1 0 0-1.5H4.5Z"/><path d="M4.5 13.751a.75.75 0 0 0 0 1.5h.7c.4 1.167.966 2.114 1.73 2.777-.421.237-.926.503-1.516.798a.75.75 0 0 0 .67 1.341 31.687 31.687 0 0 0 2.193-1.188c.637.4 1.35.796 2.136 1.189a.75.75 0 1 0 .67-1.342A25.667 25.667 0 0 1 9.557 18l1.098-1.097a.75.75 0 1 0-1.06-1.061l-1.25 1.25a1.574 1.574 0 0 1-.08.073 12.305 12.305 0 0 1-.19-.14c-.486-.365-.92-.94-1.27-1.774h1.445a.75.75 0 0 0 0-1.5H4.5Z"/></svg>
