<svg xmlns="http://www.w3.org/2000/svg" viewBox="0 0 24 24"><path d="M22.781 9.005a1.874 1.874 0 0 0-1.618-1.287l-5.344-.462-2.09-4.982a1.875 1.875 0 0 0-3.452 0L8.183 7.256l-5.343.462a1.875 1.875 0 0 0-1.07 3.288l4.06 3.544-1.218 5.273a1.875 1.875 0 0 0 2.794 2.03L12 19.063l4.594 2.79a1.875 1.875 0 0 0 2.793-2.03L18.17 14.55l4.061-3.544a1.875 1.875 0 0 0 .551-2.001ZM16.523 13a1.875 1.875 0 0 0-.595 1.84l1.068 4.624-4.026-2.445a1.866 1.866 0 0 0-1.94 0l-4.026 2.445 1.068-4.623A1.875 1.875 0 0 0 7.477 13L3.906 9.884l4.7-.407a1.868 1.868 0 0 0 1.565-1.143L12 3.977l1.83 4.358a1.867 1.867 0 0 0 1.564 1.143l4.7.407L16.524 13Z"/></svg>
