<svg xmlns="http://www.w3.org/2000/svg" viewBox="0 0 24 24"><path d="M12 2.25A9.75 9.75 0 1 0 21.75 12 9.76 9.76 0 0 0 12 2.25ZM5.625 6.766a8.175 8.175 0 0 1 1.84 4.484h-3.68a8.207 8.207 0 0 1 1.84-4.484Zm7.125 4.484V3.785a8.212 8.212 0 0 1 4.564 1.91 9.662 9.662 0 0 0-2.286 5.555H12.75Zm-1.5 0H8.972a9.662 9.662 0 0 0-2.286-5.556 8.212 8.212 0 0 1 4.564-1.91v7.466Zm-3.785 1.5a8.175 8.175 0 0 1-1.84 4.484 8.207 8.207 0 0 1-1.84-4.484h3.68Zm1.507 0h2.278v7.465a8.212 8.212 0 0 1-4.564-1.91 9.664 9.664 0 0 0 2.286-5.555Zm3.778 0h2.278a9.665 9.665 0 0 0 2.286 5.556 8.212 8.212 0 0 1-4.564 1.91V12.75Zm3.785 0h3.68a8.207 8.207 0 0 1-1.84 4.484 8.175 8.175 0 0 1-1.84-4.484Zm0-1.5a8.175 8.175 0 0 1 1.84-4.484 8.207 8.207 0 0 1 1.84 4.484h-3.68Z"/></svg>
