<svg xmlns="http://www.w3.org/2000/svg" viewBox="0 0 24 24"><path fill-rule="evenodd" d="M14.38.51c.845.06 1.691.417 2.49 1.08.798-.66 1.646-1.016 2.493-1.075 1.101-.076 2.072.358 2.767 1.033 1.35 1.312 1.804 3.746.048 5.423a.811.811 0 0 1-.023.02l-4.654 4.167a.95.95 0 0 1-1.267 0L11.58 6.99a1.041 1.041 0 0 1-.028-.026c-1.73-1.682-1.279-4.112.065-5.424C12.31.865 13.28.431 14.38.51ZM12.943 2.9c-.74.723-.874 1.904-.08 2.689l4.004 3.585 4.008-3.588c.804-.779.674-1.953-.07-2.676-.354-.344-.81-.535-1.311-.5-.5.034-1.173.304-1.923 1.132a.95.95 0 0 1-1.409 0c-.752-.833-1.424-1.103-1.92-1.139-.495-.035-.947.154-1.299.497ZM.5 12.5c0-.51.414-.925.925-.925h7.4c.122 0 .242.024.355.071l6.343 2.643a.922.922 0 0 1 .157.084c.369.246.85.695 1.183 1.303.186.339.331.74.377 1.184h2.684c.551 0 1.044.116 1.457.36.418.248.7.596.873.965.329.7.271 1.465.153 1.939a.925.925 0 0 1-.587.646l-7.4 2.643a.925.925 0 0 1-.534.026l-7.308-1.826v.4c0 .511-.414.926-.925.926H1.425a.925.925 0 0 1-.925-.925V12.5Zm6.078 7.206v-6.281H8.64l6.077 2.532c.16.12.377.337.525.608.053.096.095.195.123.295H14.11c-.316 0-.857-.024-1.412-.097-.578-.077-1.067-.194-1.346-.334a.925.925 0 0 0-.827 1.655c.567.284 1.311.43 1.93.513.644.085 1.266.113 1.655.113h5.814c.294 0 .445.061.514.102a.341.341 0 0 1 .142.16.8.8 0 0 1 .064.254l-6.582 2.35-7.484-1.87Zm-1.85 1.383v-7.664H2.35v7.664h2.378Z"/></svg>
