<svg xmlns="http://www.w3.org/2000/svg" viewBox="0 0 12 12"><path d="M4.907 5.632c.617-.295.939-.741.939-1.435 0-1.369-1.02-1.702-2.197-1.702H.41v6.87h3.33c1.249 0 2.422-.599 2.422-1.995 0-.862-.41-1.5-1.255-1.738ZM1.92 3.668h1.417c.545 0 1.035.153 1.035.785 0 .583-.382.818-.92.818H1.92V3.668Zm1.615 4.53H1.92V6.306h1.646c.665 0 1.085.277 1.085.981 0 .694-.502.911-1.116.911Zm6.95-4.666H7.699v-.676h2.786v.676Zm1.09 3.418c0-1.472-.86-2.699-2.42-2.699-1.516 0-2.546 1.14-2.546 2.633 0 1.549.975 2.611 2.546 2.611 1.188 0 1.958-.535 2.328-1.673h-1.206c-.13.425-.665.65-1.08.65-.8 0-1.22-.47-1.22-1.266h3.587a3.61 3.61 0 0 0 .012-.256Zm-3.597-.605c.045-.653.479-1.062 1.134-1.062.686 0 1.031.403 1.09 1.062H7.977Z"/></svg>
