<svg xmlns="http://www.w3.org/2000/svg" viewBox="0 0 12 12"><path d="M4.546 8.585c0 .035-.04.063-.091.063-.058.005-.099-.023-.099-.063 0-.035.04-.063.092-.063.053-.006.098.022.098.063ZM4 8.505c-.013.036.022.076.075.087.046.018.099 0 .11-.035.01-.035-.024-.076-.076-.092-.046-.012-.097.006-.11.04Zm.776-.03c-.05.013-.086.047-.08.087.005.035.05.058.103.046.051-.013.086-.046.081-.081-.005-.033-.053-.056-.104-.051ZM5.933 1.74c-2.438 0-4.303 1.851-4.303 4.29 0 1.948 1.227 3.617 2.98 4.204.224.04.304-.099.304-.213 0-.109-.006-.71-.006-1.08 0 0-1.23.264-1.489-.523 0 0-.2-.512-.488-.643 0 0-.403-.276.028-.271 0 0 .438.035.678.453.385.679 1.03.484 1.282.368.04-.281.155-.477.281-.593-.982-.109-1.974-.251-1.974-1.942 0-.483.134-.726.415-1.035-.046-.115-.195-.586.046-1.194.367-.114 1.213.475 1.213.475a4.13 4.13 0 0 1 2.207 0s.846-.59 1.213-.475c.241.61.092 1.08.046 1.194.281.31.453.553.453 1.035 0 1.696-1.035 1.832-2.018 1.942.162.14.3.403.3.816 0 .592-.006 1.325-.006 1.47 0 .114.08.253.304.212 1.758-.583 2.95-2.252 2.95-4.2 0-2.439-1.978-4.29-4.416-4.29ZM3.34 7.803c-.023.017-.018.058.012.091.028.028.068.04.091.018.023-.018.018-.058-.012-.092-.028-.028-.069-.04-.091-.017Zm-.19-.143c-.013.023.005.051.04.069.028.017.063.012.076-.012.012-.023-.006-.051-.04-.069-.036-.01-.064-.005-.076.012Zm.57.626c-.029.023-.018.076.022.11.04.04.092.045.114.017.023-.023.013-.076-.022-.11-.04-.04-.092-.045-.115-.017Zm-.201-.258c-.028.017-.028.063 0 .103.028.04.075.058.098.04.028-.022.028-.068 0-.108-.024-.04-.07-.058-.098-.035Z"/></svg>
